<?xml version="1.0" encoding="UTF-8"?>
<svg xmlns="http://www.w3.org/2000/svg"
     xmlns:xlink="http://www.w3.org/1999/xlink"
     xmlns:gadfly="http://www.gadflyjl.org/ns"
     version="1.2"
     width="152.4mm" height="76.2mm" viewBox="0 0 152.4 76.2"
     stroke="none"
     fill="#000000"
     stroke-width="0.3"
     font-size="3.88"
>
<g class="plotroot xscalable yscalable" id="img-05b3a357-1">
  <g font-size="3.88" font-family="'PT Sans','Helvetica Neue','Helvetica',sans-serif" fill="#564A55" stroke="#000000" stroke-opacity="0.000" id="img-05b3a357-2">
    <text x="86.43" y="64.59" text-anchor="middle" dy="0.6em">Time (sec)</text>
  </g>
  <g class="guide xlabels" font-size="2.82" font-family="'PT Sans Caption','Helvetica Neue','Helvetica',sans-serif" fill="#6C606B" id="img-05b3a357-3">
    <text x="27.46" y="57.91" text-anchor="middle" dy="0.6em">0</text>
    <text x="51.05" y="57.91" text-anchor="middle" dy="0.6em">5.0×10³</text>
    <text x="74.63" y="57.91" text-anchor="middle" dy="0.6em">1.0×10⁴</text>
    <text x="98.22" y="57.91" text-anchor="middle" dy="0.6em">1.5×10⁴</text>
    <text x="121.81" y="57.91" text-anchor="middle" dy="0.6em">2.0×10⁴</text>
    <text x="145.4" y="57.91" text-anchor="middle" dy="0.6em">2.5×10⁴</text>
  </g>
<g clip-path="url(#img-05b3a357-4)">
  <g id="img-05b3a357-5">
    <g pointer-events="visible" opacity="1" fill="#000000" fill-opacity="0.000" stroke="#000000" stroke-opacity="0.000" class="guide background" id="img-05b3a357-6">
      <rect x="25.46" y="5" width="121.94" height="51.91"/>
    </g>
    <g class="guide ygridlines xfixed" stroke-dasharray="0.5,0.5" stroke-width="0.2" stroke="#D0D0E0" id="img-05b3a357-7">
      <path fill="none" d="M25.46,54.91 L 147.4 54.91"/>
      <path fill="none" d="M25.46,45.33 L 147.4 45.33"/>
      <path fill="none" d="M25.46,35.75 L 147.4 35.75"/>
      <path fill="none" d="M25.46,26.17 L 147.4 26.17"/>
      <path fill="none" d="M25.46,16.58 L 147.4 16.58"/>
      <path fill="none" d="M25.46,7 L 147.4 7"/>
    </g>
    <g class="guide xgridlines yfixed" stroke-dasharray="0.5,0.5" stroke-width="0.2" stroke="#D0D0E0" id="img-05b3a357-8">
      <path fill="none" d="M27.46,5 L 27.46 56.91"/>
      <path fill="none" d="M51.05,5 L 51.05 56.91"/>
      <path fill="none" d="M74.63,5 L 74.63 56.91"/>
      <path fill="none" d="M98.22,5 L 98.22 56.91"/>
      <path fill="none" d="M121.81,5 L 121.81 56.91"/>
      <path fill="none" d="M145.4,5 L 145.4 56.91"/>
    </g>
    <g class="plotpanel" id="img-05b3a357-9">
      <g class="geometry" id="img-05b3a357-10">
        <g class="color_RGBA{Float32}(0.0f0,0.74736935f0,1.0f0,1.0f0)" stroke="#FFFFFF" stroke-width="0.3" fill="#00BFFF" id="img-05b3a357-11">
          <use xlink:href="#img-05b3a357-12" x="27.46" y="50.64"/>
          <use xlink:href="#img-05b3a357-12" x="27.93" y="54.89"/>
          <use xlink:href="#img-05b3a357-12" x="28.4" y="54.82"/>
          <use xlink:href="#img-05b3a357-12" x="28.87" y="54.68"/>
          <use xlink:href="#img-05b3a357-12" x="29.34" y="54.5"/>
          <use xlink:href="#img-05b3a357-12" x="29.82" y="54.29"/>
          <use xlink:href="#img-05b3a357-12" x="30.29" y="54.02"/>
          <use xlink:href="#img-05b3a357-12" x="30.76" y="53.69"/>
          <use xlink:href="#img-05b3a357-12" x="31.23" y="53.3"/>
          <use xlink:href="#img-05b3a357-12" x="31.7" y="52.87"/>
          <use xlink:href="#img-05b3a357-12" x="32.18" y="52.42"/>
          <use xlink:href="#img-05b3a357-12" x="32.65" y="51.92"/>
          <use xlink:href="#img-05b3a357-12" x="33.12" y="51.33"/>
          <use xlink:href="#img-05b3a357-12" x="33.59" y="50.69"/>
          <use xlink:href="#img-05b3a357-12" x="34.06" y="50.05"/>
          <use xlink:href="#img-05b3a357-12" x="34.53" y="49.35"/>
          <use xlink:href="#img-05b3a357-12" x="35.01" y="40.77"/>
          <use xlink:href="#img-05b3a357-12" x="35.48" y="52.02"/>
          <use xlink:href="#img-05b3a357-12" x="35.95" y="53.02"/>
          <use xlink:href="#img-05b3a357-12" x="36.42" y="51.63"/>
          <use xlink:href="#img-05b3a357-12" x="36.89" y="51.81"/>
          <use xlink:href="#img-05b3a357-12" x="37.36" y="51.31"/>
          <use xlink:href="#img-05b3a357-12" x="37.84" y="51.34"/>
          <use xlink:href="#img-05b3a357-12" x="38.31" y="51.48"/>
          <use xlink:href="#img-05b3a357-12" x="38.78" y="50.92"/>
          <use xlink:href="#img-05b3a357-12" x="39.25" y="51.33"/>
          <use xlink:href="#img-05b3a357-12" x="39.72" y="51.41"/>
          <use xlink:href="#img-05b3a357-12" x="40.2" y="49.41"/>
          <use xlink:href="#img-05b3a357-12" x="40.67" y="51.52"/>
          <use xlink:href="#img-05b3a357-12" x="41.14" y="51.36"/>
          <use xlink:href="#img-05b3a357-12" x="41.61" y="51.34"/>
          <use xlink:href="#img-05b3a357-12" x="42.08" y="49.11"/>
          <use xlink:href="#img-05b3a357-12" x="42.55" y="49.81"/>
          <use xlink:href="#img-05b3a357-12" x="43.03" y="51.26"/>
          <use xlink:href="#img-05b3a357-12" x="43.5" y="49.07"/>
          <use xlink:href="#img-05b3a357-12" x="43.97" y="51.21"/>
          <use xlink:href="#img-05b3a357-12" x="44.44" y="51.87"/>
          <use xlink:href="#img-05b3a357-12" x="44.91" y="49.37"/>
          <use xlink:href="#img-05b3a357-12" x="45.38" y="51.11"/>
          <use xlink:href="#img-05b3a357-12" x="45.86" y="51.87"/>
          <use xlink:href="#img-05b3a357-12" x="46.33" y="51.09"/>
          <use xlink:href="#img-05b3a357-12" x="46.8" y="51.19"/>
          <use xlink:href="#img-05b3a357-12" x="47.27" y="51.57"/>
          <use xlink:href="#img-05b3a357-12" x="47.74" y="40.62"/>
          <use xlink:href="#img-05b3a357-12" x="48.22" y="50.09"/>
          <use xlink:href="#img-05b3a357-12" x="48.69" y="50.19"/>
          <use xlink:href="#img-05b3a357-12" x="49.16" y="52.25"/>
          <use xlink:href="#img-05b3a357-12" x="49.63" y="49.77"/>
          <use xlink:href="#img-05b3a357-12" x="50.1" y="48.39"/>
          <use xlink:href="#img-05b3a357-12" x="50.57" y="53.12"/>
          <use xlink:href="#img-05b3a357-12" x="51.05" y="49.27"/>
          <use xlink:href="#img-05b3a357-12" x="51.52" y="51.52"/>
          <use xlink:href="#img-05b3a357-12" x="51.99" y="51.75"/>
          <use xlink:href="#img-05b3a357-12" x="52.46" y="51.58"/>
          <use xlink:href="#img-05b3a357-12" x="52.93" y="51.47"/>
          <use xlink:href="#img-05b3a357-12" x="53.4" y="51.82"/>
          <use xlink:href="#img-05b3a357-12" x="53.88" y="50.2"/>
          <use xlink:href="#img-05b3a357-12" x="54.35" y="51.73"/>
          <use xlink:href="#img-05b3a357-12" x="54.82" y="50.42"/>
          <use xlink:href="#img-05b3a357-12" x="55.29" y="50.63"/>
          <use xlink:href="#img-05b3a357-12" x="55.76" y="51.37"/>
          <use xlink:href="#img-05b3a357-12" x="56.24" y="51.81"/>
          <use xlink:href="#img-05b3a357-12" x="56.71" y="50.76"/>
          <use xlink:href="#img-05b3a357-12" x="57.18" y="51.39"/>
          <use xlink:href="#img-05b3a357-12" x="57.65" y="51.93"/>
          <use xlink:href="#img-05b3a357-12" x="58.12" y="51"/>
          <use xlink:href="#img-05b3a357-12" x="58.59" y="51.45"/>
          <use xlink:href="#img-05b3a357-12" x="59.07" y="50.42"/>
          <use xlink:href="#img-05b3a357-12" x="59.54" y="50.97"/>
          <use xlink:href="#img-05b3a357-12" x="60.01" y="52.15"/>
          <use xlink:href="#img-05b3a357-12" x="60.48" y="52.02"/>
          <use xlink:href="#img-05b3a357-12" x="60.95" y="51.79"/>
          <use xlink:href="#img-05b3a357-12" x="61.42" y="51.95"/>
          <use xlink:href="#img-05b3a357-12" x="61.9" y="52.01"/>
          <use xlink:href="#img-05b3a357-12" x="62.37" y="46.61"/>
          <use xlink:href="#img-05b3a357-12" x="62.84" y="49.57"/>
          <use xlink:href="#img-05b3a357-12" x="63.31" y="51.07"/>
          <use xlink:href="#img-05b3a357-12" x="63.78" y="51.36"/>
          <use xlink:href="#img-05b3a357-12" x="64.26" y="49.62"/>
          <use xlink:href="#img-05b3a357-12" x="64.73" y="50.44"/>
          <use xlink:href="#img-05b3a357-12" x="65.2" y="50.57"/>
          <use xlink:href="#img-05b3a357-12" x="65.67" y="52.46"/>
          <use xlink:href="#img-05b3a357-12" x="66.14" y="49.66"/>
          <use xlink:href="#img-05b3a357-12" x="66.61" y="49.61"/>
          <use xlink:href="#img-05b3a357-12" x="67.09" y="50.18"/>
          <use xlink:href="#img-05b3a357-12" x="67.56" y="50.97"/>
          <use xlink:href="#img-05b3a357-12" x="68.03" y="49.57"/>
          <use xlink:href="#img-05b3a357-12" x="68.5" y="51.71"/>
          <use xlink:href="#img-05b3a357-12" x="68.97" y="51.09"/>
          <use xlink:href="#img-05b3a357-12" x="69.45" y="51.84"/>
          <use xlink:href="#img-05b3a357-12" x="69.92" y="51.54"/>
          <use xlink:href="#img-05b3a357-12" x="70.39" y="49.87"/>
          <use xlink:href="#img-05b3a357-12" x="70.86" y="52.32"/>
          <use xlink:href="#img-05b3a357-12" x="71.33" y="51.68"/>
          <use xlink:href="#img-05b3a357-12" x="71.8" y="49.08"/>
          <use xlink:href="#img-05b3a357-12" x="72.28" y="52.3"/>
          <use xlink:href="#img-05b3a357-12" x="72.75" y="50.86"/>
          <use xlink:href="#img-05b3a357-12" x="73.22" y="52.22"/>
          <use xlink:href="#img-05b3a357-12" x="73.69" y="51.82"/>
          <use xlink:href="#img-05b3a357-12" x="74.16" y="50.99"/>
          <use xlink:href="#img-05b3a357-12" x="74.63" y="51.86"/>
          <use xlink:href="#img-05b3a357-12" x="75.11" y="51.83"/>
          <use xlink:href="#img-05b3a357-12" x="75.58" y="51.23"/>
          <use xlink:href="#img-05b3a357-12" x="76.05" y="50.15"/>
          <use xlink:href="#img-05b3a357-12" x="76.52" y="50.5"/>
          <use xlink:href="#img-05b3a357-12" x="76.99" y="50.64"/>
          <use xlink:href="#img-05b3a357-12" x="77.47" y="8.41"/>
          <use xlink:href="#img-05b3a357-12" x="77.94" y="52.68"/>
          <use xlink:href="#img-05b3a357-12" x="78.41" y="51.1"/>
          <use xlink:href="#img-05b3a357-12" x="78.88" y="44.18"/>
          <use xlink:href="#img-05b3a357-12" x="79.35" y="52.34"/>
          <use xlink:href="#img-05b3a357-12" x="79.82" y="51.09"/>
          <use xlink:href="#img-05b3a357-12" x="80.3" y="51.8"/>
          <use xlink:href="#img-05b3a357-12" x="80.77" y="52.28"/>
          <use xlink:href="#img-05b3a357-12" x="81.24" y="51.2"/>
          <use xlink:href="#img-05b3a357-12" x="81.71" y="51.92"/>
          <use xlink:href="#img-05b3a357-12" x="82.18" y="40.32"/>
          <use xlink:href="#img-05b3a357-12" x="82.65" y="51.04"/>
          <use xlink:href="#img-05b3a357-12" x="83.13" y="49.8"/>
          <use xlink:href="#img-05b3a357-12" x="83.6" y="51.06"/>
          <use xlink:href="#img-05b3a357-12" x="84.07" y="51.14"/>
          <use xlink:href="#img-05b3a357-12" x="84.54" y="51.74"/>
          <use xlink:href="#img-05b3a357-12" x="85.01" y="51.5"/>
          <use xlink:href="#img-05b3a357-12" x="85.49" y="50.23"/>
          <use xlink:href="#img-05b3a357-12" x="85.96" y="52.36"/>
          <use xlink:href="#img-05b3a357-12" x="86.43" y="48.76"/>
          <use xlink:href="#img-05b3a357-12" x="86.9" y="48.99"/>
          <use xlink:href="#img-05b3a357-12" x="87.37" y="52.18"/>
          <use xlink:href="#img-05b3a357-12" x="87.84" y="52.62"/>
          <use xlink:href="#img-05b3a357-12" x="88.32" y="52.59"/>
          <use xlink:href="#img-05b3a357-12" x="88.79" y="52.07"/>
          <use xlink:href="#img-05b3a357-12" x="89.26" y="50.99"/>
          <use xlink:href="#img-05b3a357-12" x="89.73" y="52.84"/>
          <use xlink:href="#img-05b3a357-12" x="90.2" y="51.06"/>
          <use xlink:href="#img-05b3a357-12" x="90.67" y="50.62"/>
          <use xlink:href="#img-05b3a357-12" x="91.15" y="49.73"/>
          <use xlink:href="#img-05b3a357-12" x="91.62" y="51.52"/>
          <use xlink:href="#img-05b3a357-12" x="92.09" y="52.04"/>
          <use xlink:href="#img-05b3a357-12" x="92.56" y="51.81"/>
          <use xlink:href="#img-05b3a357-12" x="93.03" y="51.91"/>
          <use xlink:href="#img-05b3a357-12" x="93.51" y="51.32"/>
          <use xlink:href="#img-05b3a357-12" x="93.98" y="51.69"/>
          <use xlink:href="#img-05b3a357-12" x="94.45" y="51.96"/>
          <use xlink:href="#img-05b3a357-12" x="94.92" y="51.05"/>
          <use xlink:href="#img-05b3a357-12" x="95.39" y="52.29"/>
          <use xlink:href="#img-05b3a357-12" x="95.86" y="52.05"/>
          <use xlink:href="#img-05b3a357-12" x="96.34" y="51.06"/>
          <use xlink:href="#img-05b3a357-12" x="96.81" y="52.36"/>
          <use xlink:href="#img-05b3a357-12" x="97.28" y="52.11"/>
          <use xlink:href="#img-05b3a357-12" x="97.75" y="49.99"/>
          <use xlink:href="#img-05b3a357-12" x="98.22" y="51.36"/>
          <use xlink:href="#img-05b3a357-12" x="98.69" y="52.12"/>
          <use xlink:href="#img-05b3a357-12" x="99.17" y="50.14"/>
          <use xlink:href="#img-05b3a357-12" x="99.64" y="50.51"/>
          <use xlink:href="#img-05b3a357-12" x="100.11" y="49.43"/>
          <use xlink:href="#img-05b3a357-12" x="100.58" y="49.62"/>
          <use xlink:href="#img-05b3a357-12" x="101.05" y="50.79"/>
          <use xlink:href="#img-05b3a357-12" x="101.53" y="51.75"/>
          <use xlink:href="#img-05b3a357-12" x="102" y="49.91"/>
          <use xlink:href="#img-05b3a357-12" x="102.47" y="50.56"/>
          <use xlink:href="#img-05b3a357-12" x="102.94" y="48.14"/>
          <use xlink:href="#img-05b3a357-12" x="103.41" y="51.3"/>
          <use xlink:href="#img-05b3a357-12" x="103.88" y="51"/>
          <use xlink:href="#img-05b3a357-12" x="104.36" y="50.81"/>
          <use xlink:href="#img-05b3a357-12" x="104.83" y="51.28"/>
          <use xlink:href="#img-05b3a357-12" x="105.3" y="48.7"/>
          <use xlink:href="#img-05b3a357-12" x="105.77" y="50"/>
          <use xlink:href="#img-05b3a357-12" x="106.24" y="52.68"/>
          <use xlink:href="#img-05b3a357-12" x="106.71" y="50.99"/>
          <use xlink:href="#img-05b3a357-12" x="107.19" y="49.59"/>
          <use xlink:href="#img-05b3a357-12" x="107.66" y="52.64"/>
          <use xlink:href="#img-05b3a357-12" x="108.13" y="51.21"/>
          <use xlink:href="#img-05b3a357-12" x="108.6" y="50.1"/>
          <use xlink:href="#img-05b3a357-12" x="109.07" y="51.65"/>
          <use xlink:href="#img-05b3a357-12" x="109.55" y="50.83"/>
          <use xlink:href="#img-05b3a357-12" x="110.02" y="50.12"/>
          <use xlink:href="#img-05b3a357-12" x="110.49" y="40.82"/>
          <use xlink:href="#img-05b3a357-12" x="110.96" y="51.77"/>
          <use xlink:href="#img-05b3a357-12" x="111.43" y="49.31"/>
          <use xlink:href="#img-05b3a357-12" x="111.9" y="50.59"/>
          <use xlink:href="#img-05b3a357-12" x="112.38" y="51.78"/>
          <use xlink:href="#img-05b3a357-12" x="112.85" y="50.49"/>
          <use xlink:href="#img-05b3a357-12" x="113.32" y="50.4"/>
          <use xlink:href="#img-05b3a357-12" x="113.79" y="49.01"/>
          <use xlink:href="#img-05b3a357-12" x="114.26" y="51.91"/>
          <use xlink:href="#img-05b3a357-12" x="114.73" y="51.46"/>
          <use xlink:href="#img-05b3a357-12" x="115.21" y="51.64"/>
          <use xlink:href="#img-05b3a357-12" x="115.68" y="51.3"/>
          <use xlink:href="#img-05b3a357-12" x="116.15" y="51.78"/>
          <use xlink:href="#img-05b3a357-12" x="116.62" y="51.96"/>
          <use xlink:href="#img-05b3a357-12" x="117.09" y="51.08"/>
          <use xlink:href="#img-05b3a357-12" x="117.57" y="52.49"/>
          <use xlink:href="#img-05b3a357-12" x="118.04" y="51.84"/>
          <use xlink:href="#img-05b3a357-12" x="118.51" y="51.15"/>
          <use xlink:href="#img-05b3a357-12" x="118.98" y="52.04"/>
          <use xlink:href="#img-05b3a357-12" x="119.45" y="51.6"/>
          <use xlink:href="#img-05b3a357-12" x="119.92" y="52.92"/>
          <use xlink:href="#img-05b3a357-12" x="120.4" y="51.03"/>
          <use xlink:href="#img-05b3a357-12" x="120.87" y="51.24"/>
          <use xlink:href="#img-05b3a357-12" x="121.34" y="52.9"/>
          <use xlink:href="#img-05b3a357-12" x="121.81" y="50.74"/>
          <use xlink:href="#img-05b3a357-12" x="122.28" y="50.94"/>
          <use xlink:href="#img-05b3a357-12" x="122.76" y="49.9"/>
          <use xlink:href="#img-05b3a357-12" x="123.23" y="51.97"/>
          <use xlink:href="#img-05b3a357-12" x="123.7" y="52.14"/>
          <use xlink:href="#img-05b3a357-12" x="124.17" y="50.67"/>
          <use xlink:href="#img-05b3a357-12" x="124.64" y="50.76"/>
          <use xlink:href="#img-05b3a357-12" x="125.11" y="49.55"/>
          <use xlink:href="#img-05b3a357-12" x="125.59" y="50.4"/>
          <use xlink:href="#img-05b3a357-12" x="126.06" y="51.5"/>
          <use xlink:href="#img-05b3a357-12" x="126.53" y="52.55"/>
          <use xlink:href="#img-05b3a357-12" x="127" y="50.7"/>
          <use xlink:href="#img-05b3a357-12" x="127.47" y="51.26"/>
          <use xlink:href="#img-05b3a357-12" x="127.94" y="48.74"/>
          <use xlink:href="#img-05b3a357-12" x="128.42" y="51.75"/>
          <use xlink:href="#img-05b3a357-12" x="128.89" y="51.4"/>
          <use xlink:href="#img-05b3a357-12" x="129.36" y="49.9"/>
          <use xlink:href="#img-05b3a357-12" x="129.83" y="52.53"/>
          <use xlink:href="#img-05b3a357-12" x="130.3" y="51.88"/>
          <use xlink:href="#img-05b3a357-12" x="130.78" y="51.26"/>
          <use xlink:href="#img-05b3a357-12" x="131.25" y="52.24"/>
          <use xlink:href="#img-05b3a357-12" x="131.72" y="49.38"/>
          <use xlink:href="#img-05b3a357-12" x="132.19" y="51.35"/>
          <use xlink:href="#img-05b3a357-12" x="132.66" y="50.58"/>
          <use xlink:href="#img-05b3a357-12" x="133.13" y="51.01"/>
          <use xlink:href="#img-05b3a357-12" x="133.61" y="50.94"/>
          <use xlink:href="#img-05b3a357-12" x="134.08" y="50.1"/>
          <use xlink:href="#img-05b3a357-12" x="134.55" y="50.96"/>
          <use xlink:href="#img-05b3a357-12" x="135.02" y="50.75"/>
          <use xlink:href="#img-05b3a357-12" x="135.49" y="51.27"/>
          <use xlink:href="#img-05b3a357-12" x="135.96" y="51.77"/>
          <use xlink:href="#img-05b3a357-12" x="136.44" y="51.02"/>
          <use xlink:href="#img-05b3a357-12" x="136.91" y="24.53"/>
          <use xlink:href="#img-05b3a357-12" x="137.38" y="51.96"/>
          <use xlink:href="#img-05b3a357-12" x="137.85" y="51.46"/>
          <use xlink:href="#img-05b3a357-12" x="138.32" y="52.11"/>
          <use xlink:href="#img-05b3a357-12" x="138.8" y="51.94"/>
          <use xlink:href="#img-05b3a357-12" x="139.27" y="51.48"/>
          <use xlink:href="#img-05b3a357-12" x="139.74" y="51.88"/>
          <use xlink:href="#img-05b3a357-12" x="140.21" y="51.66"/>
          <use xlink:href="#img-05b3a357-12" x="140.68" y="50.96"/>
          <use xlink:href="#img-05b3a357-12" x="141.15" y="51.32"/>
          <use xlink:href="#img-05b3a357-12" x="141.63" y="51.63"/>
          <use xlink:href="#img-05b3a357-12" x="142.1" y="51.01"/>
          <use xlink:href="#img-05b3a357-12" x="142.57" y="50.47"/>
          <use xlink:href="#img-05b3a357-12" x="143.04" y="50.57"/>
          <use xlink:href="#img-05b3a357-12" x="143.51" y="50.42"/>
          <use xlink:href="#img-05b3a357-12" x="143.98" y="50.35"/>
          <use xlink:href="#img-05b3a357-12" x="144.46" y="50.69"/>
          <use xlink:href="#img-05b3a357-12" x="144.93" y="45.11"/>
          <use xlink:href="#img-05b3a357-12" x="145.4" y="50.64"/>
        </g>
      </g>
    </g>
  </g>
</g>
  <g class="guide ylabels" font-size="2.82" font-family="'PT Sans Caption','Helvetica Neue','Helvetica',sans-serif" fill="#6C606B" id="img-05b3a357-13">
    <text x="24.46" y="54.91" text-anchor="end" dy="0.35em">0.0000</text>
    <text x="24.46" y="45.33" text-anchor="end" dy="0.35em">0.0005</text>
    <text x="24.46" y="35.75" text-anchor="end" dy="0.35em">0.0010</text>
    <text x="24.46" y="26.17" text-anchor="end" dy="0.35em">0.0015</text>
    <text x="24.46" y="16.58" text-anchor="end" dy="0.35em">0.0020</text>
    <text x="24.46" y="7" text-anchor="end" dy="0.35em">0.0025</text>
  </g>
  <g font-size="3.88" font-family="'PT Sans','Helvetica Neue','Helvetica',sans-serif" fill="#564A55" stroke="#000000" stroke-opacity="0.000" id="img-05b3a357-14">
    <text x="9.71" y="28.96" text-anchor="middle" dy="0.35em" transform="rotate(-90, 9.71, 30.96)">Relative L<tspan style="dominant-baseline:inherit" dy="0.6em" font-size="83%">2</tspan><tspan dy="-0.498000em"></tspan></text>
  </g>
</g>
<defs>
  <clipPath id="img-05b3a357-4">
  <path d="M25.46,5 L 147.4 5 147.4 56.91 25.46 56.91" />
</clipPath>
  <g id="img-05b3a357-12">
    <circle cx="0" cy="0" r="0.9"/>
  </g>
</defs>
</svg>
