<?xml version="1.0" encoding="UTF-8"?>
<svg xmlns="http://www.w3.org/2000/svg"
     xmlns:xlink="http://www.w3.org/1999/xlink"
     xmlns:gadfly="http://www.gadflyjl.org/ns"
     version="1.2"
     width="152.4mm" height="76.2mm" viewBox="0 0 152.4 76.2"
     stroke="none"
     fill="#000000"
     stroke-width="0.3"
     font-size="3.88"
>
<g class="plotroot xscalable yscalable" id="img-3ff67aba-1">
  <g font-size="3.88" font-family="'PT Sans','Helvetica Neue','Helvetica',sans-serif" fill="#564A55" stroke="#000000" stroke-opacity="0.000" id="img-3ff67aba-2">
    <text x="83.92" y="64.59" text-anchor="middle" dy="0.6em">Time (sec)</text>
  </g>
  <g class="guide xlabels" font-size="2.82" font-family="'PT Sans Caption','Helvetica Neue','Helvetica',sans-serif" fill="#6C606B" id="img-3ff67aba-3">
    <text x="22.44" y="57.91" text-anchor="middle" dy="0.6em">0</text>
    <text x="47.03" y="57.91" text-anchor="middle" dy="0.6em">5.0×10³</text>
    <text x="71.62" y="57.91" text-anchor="middle" dy="0.6em">1.0×10⁴</text>
    <text x="96.21" y="57.91" text-anchor="middle" dy="0.6em">1.5×10⁴</text>
    <text x="120.81" y="57.91" text-anchor="middle" dy="0.6em">2.0×10⁴</text>
    <text x="145.4" y="57.91" text-anchor="middle" dy="0.6em">2.5×10⁴</text>
  </g>
<g clip-path="url(#img-3ff67aba-4)">
  <g id="img-3ff67aba-5">
    <g pointer-events="visible" opacity="1" fill="#000000" fill-opacity="0.000" stroke="#000000" stroke-opacity="0.000" class="guide background" id="img-3ff67aba-6">
      <rect x="20.44" y="5" width="126.96" height="51.91"/>
    </g>
    <g class="guide ygridlines xfixed" stroke-dasharray="0.5,0.5" stroke-width="0.2" stroke="#D0D0E0" id="img-3ff67aba-7">
      <path fill="none" d="M20.44,54.91 L 147.4 54.91"/>
      <path fill="none" d="M20.44,38.94 L 147.4 38.94"/>
      <path fill="none" d="M20.44,22.97 L 147.4 22.97"/>
      <path fill="none" d="M20.44,7 L 147.4 7"/>
    </g>
    <g class="guide xgridlines yfixed" stroke-dasharray="0.5,0.5" stroke-width="0.2" stroke="#D0D0E0" id="img-3ff67aba-8">
      <path fill="none" d="M22.44,5 L 22.44 56.91"/>
      <path fill="none" d="M47.03,5 L 47.03 56.91"/>
      <path fill="none" d="M71.62,5 L 71.62 56.91"/>
      <path fill="none" d="M96.21,5 L 96.21 56.91"/>
      <path fill="none" d="M120.81,5 L 120.81 56.91"/>
      <path fill="none" d="M145.4,5 L 145.4 56.91"/>
    </g>
    <g class="plotpanel" id="img-3ff67aba-9">
      <g class="geometry" id="img-3ff67aba-10">
        <g class="color_RGBA{Float32}(0.0f0,0.74736935f0,1.0f0,1.0f0)" stroke="#FFFFFF" stroke-width="0.3" fill="#00BFFF" id="img-3ff67aba-11">
          <use xlink:href="#img-3ff67aba-12" x="22.44" y="48.46"/>
          <use xlink:href="#img-3ff67aba-12" x="22.93" y="18.23"/>
          <use xlink:href="#img-3ff67aba-12" x="23.42" y="22.1"/>
          <use xlink:href="#img-3ff67aba-12" x="23.91" y="23.83"/>
          <use xlink:href="#img-3ff67aba-12" x="24.4" y="23.94"/>
          <use xlink:href="#img-3ff67aba-12" x="24.9" y="22.88"/>
          <use xlink:href="#img-3ff67aba-12" x="25.39" y="22.21"/>
          <use xlink:href="#img-3ff67aba-12" x="25.88" y="22.86"/>
          <use xlink:href="#img-3ff67aba-12" x="26.37" y="23.4"/>
          <use xlink:href="#img-3ff67aba-12" x="26.86" y="23.31"/>
          <use xlink:href="#img-3ff67aba-12" x="27.36" y="22.87"/>
          <use xlink:href="#img-3ff67aba-12" x="27.85" y="22.58"/>
          <use xlink:href="#img-3ff67aba-12" x="28.34" y="22.97"/>
          <use xlink:href="#img-3ff67aba-12" x="28.83" y="23.27"/>
          <use xlink:href="#img-3ff67aba-12" x="29.32" y="23.11"/>
          <use xlink:href="#img-3ff67aba-12" x="29.82" y="22.87"/>
          <use xlink:href="#img-3ff67aba-12" x="30.31" y="52.85"/>
          <use xlink:href="#img-3ff67aba-12" x="30.8" y="50.49"/>
          <use xlink:href="#img-3ff67aba-12" x="31.29" y="46.39"/>
          <use xlink:href="#img-3ff67aba-12" x="31.78" y="50.29"/>
          <use xlink:href="#img-3ff67aba-12" x="32.27" y="45.59"/>
          <use xlink:href="#img-3ff67aba-12" x="32.77" y="51.07"/>
          <use xlink:href="#img-3ff67aba-12" x="33.26" y="46"/>
          <use xlink:href="#img-3ff67aba-12" x="33.75" y="41.48"/>
          <use xlink:href="#img-3ff67aba-12" x="34.24" y="37.37"/>
          <use xlink:href="#img-3ff67aba-12" x="34.73" y="33.56"/>
          <use xlink:href="#img-3ff67aba-12" x="35.23" y="51.26"/>
          <use xlink:href="#img-3ff67aba-12" x="35.72" y="46.22"/>
          <use xlink:href="#img-3ff67aba-12" x="36.21" y="41.69"/>
          <use xlink:href="#img-3ff67aba-12" x="36.7" y="37.36"/>
          <use xlink:href="#img-3ff67aba-12" x="37.19" y="52.28"/>
          <use xlink:href="#img-3ff67aba-12" x="37.68" y="46.71"/>
          <use xlink:href="#img-3ff67aba-12" x="38.18" y="42"/>
          <use xlink:href="#img-3ff67aba-12" x="38.67" y="37.82"/>
          <use xlink:href="#img-3ff67aba-12" x="39.16" y="33.96"/>
          <use xlink:href="#img-3ff67aba-12" x="39.65" y="51.29"/>
          <use xlink:href="#img-3ff67aba-12" x="40.14" y="45.77"/>
          <use xlink:href="#img-3ff67aba-12" x="40.64" y="41.22"/>
          <use xlink:href="#img-3ff67aba-12" x="41.13" y="37.14"/>
          <use xlink:href="#img-3ff67aba-12" x="41.62" y="33.3"/>
          <use xlink:href="#img-3ff67aba-12" x="42.11" y="50.63"/>
          <use xlink:href="#img-3ff67aba-12" x="42.6" y="45.29"/>
          <use xlink:href="#img-3ff67aba-12" x="43.1" y="40.88"/>
          <use xlink:href="#img-3ff67aba-12" x="43.59" y="47.03"/>
          <use xlink:href="#img-3ff67aba-12" x="44.08" y="48.39"/>
          <use xlink:href="#img-3ff67aba-12" x="44.57" y="43.44"/>
          <use xlink:href="#img-3ff67aba-12" x="45.06" y="39.11"/>
          <use xlink:href="#img-3ff67aba-12" x="45.55" y="35.06"/>
          <use xlink:href="#img-3ff67aba-12" x="46.05" y="53.18"/>
          <use xlink:href="#img-3ff67aba-12" x="46.54" y="47.72"/>
          <use xlink:href="#img-3ff67aba-12" x="47.03" y="52.58"/>
          <use xlink:href="#img-3ff67aba-12" x="47.52" y="47.79"/>
          <use xlink:href="#img-3ff67aba-12" x="48.01" y="42.96"/>
          <use xlink:href="#img-3ff67aba-12" x="48.51" y="38.51"/>
          <use xlink:href="#img-3ff67aba-12" x="49" y="34.52"/>
          <use xlink:href="#img-3ff67aba-12" x="49.49" y="30.95"/>
          <use xlink:href="#img-3ff67aba-12" x="49.98" y="50.7"/>
          <use xlink:href="#img-3ff67aba-12" x="50.47" y="45.36"/>
          <use xlink:href="#img-3ff67aba-12" x="50.96" y="40.85"/>
          <use xlink:href="#img-3ff67aba-12" x="51.46" y="52.86"/>
          <use xlink:href="#img-3ff67aba-12" x="51.95" y="47.08"/>
          <use xlink:href="#img-3ff67aba-12" x="52.44" y="42.28"/>
          <use xlink:href="#img-3ff67aba-12" x="52.93" y="37.92"/>
          <use xlink:href="#img-3ff67aba-12" x="53.42" y="33.98"/>
          <use xlink:href="#img-3ff67aba-12" x="53.92" y="30.51"/>
          <use xlink:href="#img-3ff67aba-12" x="54.41" y="27.49"/>
          <use xlink:href="#img-3ff67aba-12" x="54.9" y="51.75"/>
          <use xlink:href="#img-3ff67aba-12" x="55.39" y="46.55"/>
          <use xlink:href="#img-3ff67aba-12" x="55.88" y="41.9"/>
          <use xlink:href="#img-3ff67aba-12" x="56.38" y="51.8"/>
          <use xlink:href="#img-3ff67aba-12" x="56.87" y="46.39"/>
          <use xlink:href="#img-3ff67aba-12" x="57.36" y="41.87"/>
          <use xlink:href="#img-3ff67aba-12" x="57.85" y="37.65"/>
          <use xlink:href="#img-3ff67aba-12" x="58.34" y="33.79"/>
          <use xlink:href="#img-3ff67aba-12" x="58.83" y="51.02"/>
          <use xlink:href="#img-3ff67aba-12" x="59.33" y="48.44"/>
          <use xlink:href="#img-3ff67aba-12" x="59.82" y="43.58"/>
          <use xlink:href="#img-3ff67aba-12" x="60.31" y="39.24"/>
          <use xlink:href="#img-3ff67aba-12" x="60.8" y="35.27"/>
          <use xlink:href="#img-3ff67aba-12" x="61.29" y="51.95"/>
          <use xlink:href="#img-3ff67aba-12" x="61.79" y="46.38"/>
          <use xlink:href="#img-3ff67aba-12" x="62.28" y="41.85"/>
          <use xlink:href="#img-3ff67aba-12" x="62.77" y="37.67"/>
          <use xlink:href="#img-3ff67aba-12" x="63.26" y="51.39"/>
          <use xlink:href="#img-3ff67aba-12" x="63.75" y="46.07"/>
          <use xlink:href="#img-3ff67aba-12" x="64.24" y="41.4"/>
          <use xlink:href="#img-3ff67aba-12" x="64.74" y="37.15"/>
          <use xlink:href="#img-3ff67aba-12" x="65.23" y="48.85"/>
          <use xlink:href="#img-3ff67aba-12" x="65.72" y="44.04"/>
          <use xlink:href="#img-3ff67aba-12" x="66.21" y="39.49"/>
          <use xlink:href="#img-3ff67aba-12" x="66.7" y="35.36"/>
          <use xlink:href="#img-3ff67aba-12" x="67.2" y="51.52"/>
          <use xlink:href="#img-3ff67aba-12" x="67.69" y="46.11"/>
          <use xlink:href="#img-3ff67aba-12" x="68.18" y="41.27"/>
          <use xlink:href="#img-3ff67aba-12" x="68.67" y="37.08"/>
          <use xlink:href="#img-3ff67aba-12" x="69.16" y="33.28"/>
          <use xlink:href="#img-3ff67aba-12" x="69.66" y="29.93"/>
          <use xlink:href="#img-3ff67aba-12" x="70.15" y="49.52"/>
          <use xlink:href="#img-3ff67aba-12" x="70.64" y="44.32"/>
          <use xlink:href="#img-3ff67aba-12" x="71.13" y="39.96"/>
          <use xlink:href="#img-3ff67aba-12" x="71.62" y="35.89"/>
          <use xlink:href="#img-3ff67aba-12" x="72.11" y="32.21"/>
          <use xlink:href="#img-3ff67aba-12" x="72.61" y="51.52"/>
          <use xlink:href="#img-3ff67aba-12" x="73.1" y="46.06"/>
          <use xlink:href="#img-3ff67aba-12" x="73.59" y="41.45"/>
          <use xlink:href="#img-3ff67aba-12" x="74.08" y="37.34"/>
          <use xlink:href="#img-3ff67aba-12" x="74.57" y="41.23"/>
          <use xlink:href="#img-3ff67aba-12" x="75.07" y="48.58"/>
          <use xlink:href="#img-3ff67aba-12" x="75.56" y="43.61"/>
          <use xlink:href="#img-3ff67aba-12" x="76.05" y="46.77"/>
          <use xlink:href="#img-3ff67aba-12" x="76.54" y="48.74"/>
          <use xlink:href="#img-3ff67aba-12" x="77.03" y="43.84"/>
          <use xlink:href="#img-3ff67aba-12" x="77.52" y="39.39"/>
          <use xlink:href="#img-3ff67aba-12" x="78.02" y="35.3"/>
          <use xlink:href="#img-3ff67aba-12" x="78.51" y="31.67"/>
          <use xlink:href="#img-3ff67aba-12" x="79" y="28.51"/>
          <use xlink:href="#img-3ff67aba-12" x="79.49" y="40.92"/>
          <use xlink:href="#img-3ff67aba-12" x="79.98" y="49.14"/>
          <use xlink:href="#img-3ff67aba-12" x="80.48" y="44.23"/>
          <use xlink:href="#img-3ff67aba-12" x="80.97" y="39.87"/>
          <use xlink:href="#img-3ff67aba-12" x="81.46" y="52.88"/>
          <use xlink:href="#img-3ff67aba-12" x="81.95" y="47.33"/>
          <use xlink:href="#img-3ff67aba-12" x="82.44" y="42.59"/>
          <use xlink:href="#img-3ff67aba-12" x="82.94" y="38.41"/>
          <use xlink:href="#img-3ff67aba-12" x="83.43" y="50.55"/>
          <use xlink:href="#img-3ff67aba-12" x="83.92" y="45.48"/>
          <use xlink:href="#img-3ff67aba-12" x="84.41" y="40.75"/>
          <use xlink:href="#img-3ff67aba-12" x="84.9" y="36.68"/>
          <use xlink:href="#img-3ff67aba-12" x="85.39" y="50.03"/>
          <use xlink:href="#img-3ff67aba-12" x="85.89" y="44.69"/>
          <use xlink:href="#img-3ff67aba-12" x="86.38" y="51.22"/>
          <use xlink:href="#img-3ff67aba-12" x="86.87" y="45.8"/>
          <use xlink:href="#img-3ff67aba-12" x="87.36" y="50.72"/>
          <use xlink:href="#img-3ff67aba-12" x="87.85" y="45.34"/>
          <use xlink:href="#img-3ff67aba-12" x="88.35" y="48.09"/>
          <use xlink:href="#img-3ff67aba-12" x="88.84" y="53.07"/>
          <use xlink:href="#img-3ff67aba-12" x="89.33" y="47.18"/>
          <use xlink:href="#img-3ff67aba-12" x="89.82" y="42.16"/>
          <use xlink:href="#img-3ff67aba-12" x="90.31" y="50.63"/>
          <use xlink:href="#img-3ff67aba-12" x="90.8" y="45.23"/>
          <use xlink:href="#img-3ff67aba-12" x="91.3" y="40.26"/>
          <use xlink:href="#img-3ff67aba-12" x="91.79" y="35.87"/>
          <use xlink:href="#img-3ff67aba-12" x="92.28" y="31.94"/>
          <use xlink:href="#img-3ff67aba-12" x="92.77" y="49.35"/>
          <use xlink:href="#img-3ff67aba-12" x="93.26" y="44.1"/>
          <use xlink:href="#img-3ff67aba-12" x="93.76" y="39.35"/>
          <use xlink:href="#img-3ff67aba-12" x="94.25" y="35.04"/>
          <use xlink:href="#img-3ff67aba-12" x="94.74" y="31.34"/>
          <use xlink:href="#img-3ff67aba-12" x="95.23" y="28.07"/>
          <use xlink:href="#img-3ff67aba-12" x="95.72" y="50.05"/>
          <use xlink:href="#img-3ff67aba-12" x="96.21" y="44.82"/>
          <use xlink:href="#img-3ff67aba-12" x="96.71" y="40.26"/>
          <use xlink:href="#img-3ff67aba-12" x="97.2" y="36.03"/>
          <use xlink:href="#img-3ff67aba-12" x="97.69" y="50.72"/>
          <use xlink:href="#img-3ff67aba-12" x="98.18" y="45.24"/>
          <use xlink:href="#img-3ff67aba-12" x="98.67" y="40.7"/>
          <use xlink:href="#img-3ff67aba-12" x="99.17" y="49.24"/>
          <use xlink:href="#img-3ff67aba-12" x="99.66" y="44.02"/>
          <use xlink:href="#img-3ff67aba-12" x="100.15" y="39.52"/>
          <use xlink:href="#img-3ff67aba-12" x="100.64" y="35.35"/>
          <use xlink:href="#img-3ff67aba-12" x="101.13" y="52.54"/>
          <use xlink:href="#img-3ff67aba-12" x="101.63" y="47.89"/>
          <use xlink:href="#img-3ff67aba-12" x="102.12" y="42.79"/>
          <use xlink:href="#img-3ff67aba-12" x="102.61" y="38.21"/>
          <use xlink:href="#img-3ff67aba-12" x="103.1" y="34.38"/>
          <use xlink:href="#img-3ff67aba-12" x="103.59" y="50.36"/>
          <use xlink:href="#img-3ff67aba-12" x="104.08" y="48.2"/>
          <use xlink:href="#img-3ff67aba-12" x="104.58" y="43.08"/>
          <use xlink:href="#img-3ff67aba-12" x="105.07" y="38.79"/>
          <use xlink:href="#img-3ff67aba-12" x="105.56" y="34.75"/>
          <use xlink:href="#img-3ff67aba-12" x="106.05" y="31.15"/>
          <use xlink:href="#img-3ff67aba-12" x="106.54" y="50.57"/>
          <use xlink:href="#img-3ff67aba-12" x="107.04" y="45.26"/>
          <use xlink:href="#img-3ff67aba-12" x="107.53" y="40.69"/>
          <use xlink:href="#img-3ff67aba-12" x="108.02" y="36.57"/>
          <use xlink:href="#img-3ff67aba-12" x="108.51" y="32.83"/>
          <use xlink:href="#img-3ff67aba-12" x="109" y="36.45"/>
          <use xlink:href="#img-3ff67aba-12" x="109.49" y="49.24"/>
          <use xlink:href="#img-3ff67aba-12" x="109.99" y="44.24"/>
          <use xlink:href="#img-3ff67aba-12" x="110.48" y="51.01"/>
          <use xlink:href="#img-3ff67aba-12" x="110.97" y="45.8"/>
          <use xlink:href="#img-3ff67aba-12" x="111.46" y="41.18"/>
          <use xlink:href="#img-3ff67aba-12" x="111.95" y="37"/>
          <use xlink:href="#img-3ff67aba-12" x="112.45" y="46.95"/>
          <use xlink:href="#img-3ff67aba-12" x="112.94" y="48.19"/>
          <use xlink:href="#img-3ff67aba-12" x="113.43" y="43.41"/>
          <use xlink:href="#img-3ff67aba-12" x="113.92" y="39.04"/>
          <use xlink:href="#img-3ff67aba-12" x="114.41" y="50.05"/>
          <use xlink:href="#img-3ff67aba-12" x="114.91" y="44.84"/>
          <use xlink:href="#img-3ff67aba-12" x="115.4" y="40.27"/>
          <use xlink:href="#img-3ff67aba-12" x="115.89" y="36.07"/>
          <use xlink:href="#img-3ff67aba-12" x="116.38" y="50.48"/>
          <use xlink:href="#img-3ff67aba-12" x="116.87" y="45.31"/>
          <use xlink:href="#img-3ff67aba-12" x="117.36" y="40.55"/>
          <use xlink:href="#img-3ff67aba-12" x="117.86" y="36.29"/>
          <use xlink:href="#img-3ff67aba-12" x="118.35" y="51.41"/>
          <use xlink:href="#img-3ff67aba-12" x="118.84" y="45.9"/>
          <use xlink:href="#img-3ff67aba-12" x="119.33" y="41.16"/>
          <use xlink:href="#img-3ff67aba-12" x="119.82" y="36.86"/>
          <use xlink:href="#img-3ff67aba-12" x="120.32" y="33.01"/>
          <use xlink:href="#img-3ff67aba-12" x="120.81" y="49.2"/>
          <use xlink:href="#img-3ff67aba-12" x="121.3" y="43.94"/>
          <use xlink:href="#img-3ff67aba-12" x="121.79" y="39.43"/>
          <use xlink:href="#img-3ff67aba-12" x="122.28" y="50.54"/>
          <use xlink:href="#img-3ff67aba-12" x="122.77" y="45.06"/>
          <use xlink:href="#img-3ff67aba-12" x="123.27" y="40.45"/>
          <use xlink:href="#img-3ff67aba-12" x="123.76" y="49.31"/>
          <use xlink:href="#img-3ff67aba-12" x="124.25" y="44.11"/>
          <use xlink:href="#img-3ff67aba-12" x="124.74" y="39.44"/>
          <use xlink:href="#img-3ff67aba-12" x="125.23" y="50.76"/>
          <use xlink:href="#img-3ff67aba-12" x="125.73" y="45.2"/>
          <use xlink:href="#img-3ff67aba-12" x="126.22" y="40.61"/>
          <use xlink:href="#img-3ff67aba-12" x="126.71" y="36.14"/>
          <use xlink:href="#img-3ff67aba-12" x="127.2" y="52.72"/>
          <use xlink:href="#img-3ff67aba-12" x="127.69" y="47.47"/>
          <use xlink:href="#img-3ff67aba-12" x="128.19" y="42.24"/>
          <use xlink:href="#img-3ff67aba-12" x="128.68" y="37.78"/>
          <use xlink:href="#img-3ff67aba-12" x="129.17" y="50.36"/>
          <use xlink:href="#img-3ff67aba-12" x="129.66" y="44.97"/>
          <use xlink:href="#img-3ff67aba-12" x="130.15" y="40.14"/>
          <use xlink:href="#img-3ff67aba-12" x="130.64" y="35.87"/>
          <use xlink:href="#img-3ff67aba-12" x="131.14" y="52.24"/>
          <use xlink:href="#img-3ff67aba-12" x="131.63" y="47.7"/>
          <use xlink:href="#img-3ff67aba-12" x="132.12" y="42.67"/>
          <use xlink:href="#img-3ff67aba-12" x="132.61" y="48.13"/>
          <use xlink:href="#img-3ff67aba-12" x="133.1" y="43.04"/>
          <use xlink:href="#img-3ff67aba-12" x="133.6" y="38.46"/>
          <use xlink:href="#img-3ff67aba-12" x="134.09" y="34.32"/>
          <use xlink:href="#img-3ff67aba-12" x="134.58" y="51.8"/>
          <use xlink:href="#img-3ff67aba-12" x="135.07" y="46.14"/>
          <use xlink:href="#img-3ff67aba-12" x="135.56" y="41.26"/>
          <use xlink:href="#img-3ff67aba-12" x="136.05" y="36.88"/>
          <use xlink:href="#img-3ff67aba-12" x="136.55" y="41.61"/>
          <use xlink:href="#img-3ff67aba-12" x="137.04" y="48.49"/>
          <use xlink:href="#img-3ff67aba-12" x="137.53" y="43.24"/>
          <use xlink:href="#img-3ff67aba-12" x="138.02" y="38.71"/>
          <use xlink:href="#img-3ff67aba-12" x="138.51" y="34.67"/>
          <use xlink:href="#img-3ff67aba-12" x="139.01" y="30.99"/>
          <use xlink:href="#img-3ff67aba-12" x="139.5" y="50.9"/>
          <use xlink:href="#img-3ff67aba-12" x="139.99" y="45.41"/>
          <use xlink:href="#img-3ff67aba-12" x="140.48" y="40.79"/>
          <use xlink:href="#img-3ff67aba-12" x="140.97" y="36.61"/>
          <use xlink:href="#img-3ff67aba-12" x="141.47" y="32.78"/>
          <use xlink:href="#img-3ff67aba-12" x="141.96" y="52.73"/>
          <use xlink:href="#img-3ff67aba-12" x="142.45" y="47.17"/>
          <use xlink:href="#img-3ff67aba-12" x="142.94" y="42.26"/>
          <use xlink:href="#img-3ff67aba-12" x="143.43" y="38"/>
          <use xlink:href="#img-3ff67aba-12" x="143.92" y="34.13"/>
          <use xlink:href="#img-3ff67aba-12" x="144.42" y="30.65"/>
          <use xlink:href="#img-3ff67aba-12" x="144.91" y="53.16"/>
          <use xlink:href="#img-3ff67aba-12" x="145.4" y="48.46"/>
        </g>
      </g>
    </g>
  </g>
</g>
  <g class="guide ylabels" font-size="2.82" font-family="'PT Sans Caption','Helvetica Neue','Helvetica',sans-serif" fill="#6C606B" id="img-3ff67aba-13">
    <text x="19.44" y="54.91" text-anchor="end" dy="0.35em">0.0</text>
    <text x="19.44" y="38.94" text-anchor="end" dy="0.35em">0.5</text>
    <text x="19.44" y="22.97" text-anchor="end" dy="0.35em">1.0</text>
    <text x="19.44" y="7" text-anchor="end" dy="0.35em">1.5</text>
  </g>
  <g font-size="3.88" font-family="'PT Sans','Helvetica Neue','Helvetica',sans-serif" fill="#564A55" stroke="#000000" stroke-opacity="0.000" id="img-3ff67aba-14">
    <text x="9.71" y="28.96" text-anchor="middle" dy="0.35em" transform="rotate(-90, 9.71, 30.96)">Relative L<tspan style="dominant-baseline:inherit" dy="0.6em" font-size="83%">2</tspan><tspan dy="-0.498000em"></tspan></text>
  </g>
</g>
<defs>
  <clipPath id="img-3ff67aba-4">
  <path d="M20.44,5 L 147.4 5 147.4 56.91 20.44 56.91" />
</clipPath>
  <g id="img-3ff67aba-12">
    <circle cx="0" cy="0" r="0.9"/>
  </g>
</defs>
</svg>
