<?xml version="1.0" encoding="UTF-8"?>
<svg xmlns="http://www.w3.org/2000/svg"
     xmlns:xlink="http://www.w3.org/1999/xlink"
     xmlns:gadfly="http://www.gadflyjl.org/ns"
     version="1.2"
     width="152.4mm" height="76.2mm" viewBox="0 0 152.4 76.2"
     stroke="none"
     fill="#000000"
     stroke-width="0.3"
     font-size="3.88"
>
<g class="plotroot xscalable yscalable" id="img-15d9b7c8-1">
  <g font-size="3.88" font-family="'PT Sans','Helvetica Neue','Helvetica',sans-serif" fill="#564A55" stroke="#000000" stroke-opacity="0.000" id="img-15d9b7c8-2">
    <text x="89.99" y="64.59" text-anchor="middle" dy="0.6em">Time (sec)</text>
  </g>
  <g class="guide xlabels" font-size="2.82" font-family="'PT Sans Caption','Helvetica Neue','Helvetica',sans-serif" fill="#6C606B" id="img-15d9b7c8-3">
    <text x="34.58" y="57.91" text-anchor="middle" dy="0.6em">0</text>
    <text x="56.74" y="57.91" text-anchor="middle" dy="0.6em">5.0×10³</text>
    <text x="78.91" y="57.91" text-anchor="middle" dy="0.6em">1.0×10⁴</text>
    <text x="101.07" y="57.91" text-anchor="middle" dy="0.6em">1.5×10⁴</text>
    <text x="123.24" y="57.91" text-anchor="middle" dy="0.6em">2.0×10⁴</text>
    <text x="145.4" y="57.91" text-anchor="middle" dy="0.6em">2.5×10⁴</text>
  </g>
<g clip-path="url(#img-15d9b7c8-4)">
  <g id="img-15d9b7c8-5">
    <g pointer-events="visible" opacity="1" fill="#000000" fill-opacity="0.000" stroke="#000000" stroke-opacity="0.000" class="guide background" id="img-15d9b7c8-6">
      <rect x="32.58" y="5" width="114.82" height="51.91"/>
    </g>
    <g class="guide ygridlines xfixed" stroke-dasharray="0.5,0.5" stroke-width="0.2" stroke="#D0D0E0" id="img-15d9b7c8-7">
      <path fill="none" d="M32.58,54.91 L 147.4 54.91"/>
      <path fill="none" d="M32.58,42.94 L 147.4 42.94"/>
      <path fill="none" d="M32.58,30.96 L 147.4 30.96"/>
      <path fill="none" d="M32.58,18.98 L 147.4 18.98"/>
      <path fill="none" d="M32.58,7 L 147.4 7"/>
    </g>
    <g class="guide xgridlines yfixed" stroke-dasharray="0.5,0.5" stroke-width="0.2" stroke="#D0D0E0" id="img-15d9b7c8-8">
      <path fill="none" d="M34.58,5 L 34.58 56.91"/>
      <path fill="none" d="M56.74,5 L 56.74 56.91"/>
      <path fill="none" d="M78.91,5 L 78.91 56.91"/>
      <path fill="none" d="M101.07,5 L 101.07 56.91"/>
      <path fill="none" d="M123.24,5 L 123.24 56.91"/>
      <path fill="none" d="M145.4,5 L 145.4 56.91"/>
    </g>
    <g class="plotpanel" id="img-15d9b7c8-9">
      <g class="geometry" id="img-15d9b7c8-10">
        <g class="color_RGBA{Float32}(0.0f0,0.74736935f0,1.0f0,1.0f0)" stroke="#FFFFFF" stroke-width="0.3" fill="#00BFFF" id="img-15d9b7c8-11">
          <use xlink:href="#img-15d9b7c8-12" x="34.58" y="47.69"/>
          <use xlink:href="#img-15d9b7c8-12" x="35.02" y="14.7"/>
          <use xlink:href="#img-15d9b7c8-12" x="35.46" y="46.02"/>
          <use xlink:href="#img-15d9b7c8-12" x="35.91" y="50.45"/>
          <use xlink:href="#img-15d9b7c8-12" x="36.35" y="52.54"/>
          <use xlink:href="#img-15d9b7c8-12" x="36.79" y="52.21"/>
          <use xlink:href="#img-15d9b7c8-12" x="37.24" y="52.23"/>
          <use xlink:href="#img-15d9b7c8-12" x="37.68" y="52.1"/>
          <use xlink:href="#img-15d9b7c8-12" x="38.12" y="51.74"/>
          <use xlink:href="#img-15d9b7c8-12" x="38.57" y="51.52"/>
          <use xlink:href="#img-15d9b7c8-12" x="39.01" y="51.26"/>
          <use xlink:href="#img-15d9b7c8-12" x="39.45" y="50.94"/>
          <use xlink:href="#img-15d9b7c8-12" x="39.9" y="50.79"/>
          <use xlink:href="#img-15d9b7c8-12" x="40.34" y="50.62"/>
          <use xlink:href="#img-15d9b7c8-12" x="40.78" y="50.38"/>
          <use xlink:href="#img-15d9b7c8-12" x="41.23" y="50.12"/>
          <use xlink:href="#img-15d9b7c8-12" x="41.67" y="49.91"/>
          <use xlink:href="#img-15d9b7c8-12" x="42.11" y="49.89"/>
          <use xlink:href="#img-15d9b7c8-12" x="42.56" y="49.76"/>
          <use xlink:href="#img-15d9b7c8-12" x="43" y="49.6"/>
          <use xlink:href="#img-15d9b7c8-12" x="43.44" y="49.43"/>
          <use xlink:href="#img-15d9b7c8-12" x="43.89" y="49.25"/>
          <use xlink:href="#img-15d9b7c8-12" x="44.33" y="49.07"/>
          <use xlink:href="#img-15d9b7c8-12" x="44.77" y="48.91"/>
          <use xlink:href="#img-15d9b7c8-12" x="45.22" y="48.9"/>
          <use xlink:href="#img-15d9b7c8-12" x="45.66" y="48.88"/>
          <use xlink:href="#img-15d9b7c8-12" x="46.1" y="48.82"/>
          <use xlink:href="#img-15d9b7c8-12" x="46.55" y="48.74"/>
          <use xlink:href="#img-15d9b7c8-12" x="46.99" y="48.66"/>
          <use xlink:href="#img-15d9b7c8-12" x="47.43" y="48.57"/>
          <use xlink:href="#img-15d9b7c8-12" x="47.88" y="48.48"/>
          <use xlink:href="#img-15d9b7c8-12" x="48.32" y="48.39"/>
          <use xlink:href="#img-15d9b7c8-12" x="48.76" y="48.31"/>
          <use xlink:href="#img-15d9b7c8-12" x="49.21" y="48.23"/>
          <use xlink:href="#img-15d9b7c8-12" x="49.65" y="48.16"/>
          <use xlink:href="#img-15d9b7c8-12" x="50.09" y="48.09"/>
          <use xlink:href="#img-15d9b7c8-12" x="50.54" y="48.02"/>
          <use xlink:href="#img-15d9b7c8-12" x="50.98" y="47.95"/>
          <use xlink:href="#img-15d9b7c8-12" x="51.42" y="47.9"/>
          <use xlink:href="#img-15d9b7c8-12" x="51.87" y="47.84"/>
          <use xlink:href="#img-15d9b7c8-12" x="52.31" y="47.79"/>
          <use xlink:href="#img-15d9b7c8-12" x="52.75" y="47.77"/>
          <use xlink:href="#img-15d9b7c8-12" x="53.2" y="47.79"/>
          <use xlink:href="#img-15d9b7c8-12" x="53.64" y="47.8"/>
          <use xlink:href="#img-15d9b7c8-12" x="54.08" y="47.8"/>
          <use xlink:href="#img-15d9b7c8-12" x="54.53" y="47.79"/>
          <use xlink:href="#img-15d9b7c8-12" x="54.97" y="47.79"/>
          <use xlink:href="#img-15d9b7c8-12" x="55.41" y="47.78"/>
          <use xlink:href="#img-15d9b7c8-12" x="55.86" y="47.77"/>
          <use xlink:href="#img-15d9b7c8-12" x="56.3" y="47.76"/>
          <use xlink:href="#img-15d9b7c8-12" x="56.74" y="47.75"/>
          <use xlink:href="#img-15d9b7c8-12" x="57.19" y="47.74"/>
          <use xlink:href="#img-15d9b7c8-12" x="57.63" y="47.73"/>
          <use xlink:href="#img-15d9b7c8-12" x="58.07" y="47.72"/>
          <use xlink:href="#img-15d9b7c8-12" x="58.52" y="47.71"/>
          <use xlink:href="#img-15d9b7c8-12" x="58.96" y="47.7"/>
          <use xlink:href="#img-15d9b7c8-12" x="59.4" y="47.7"/>
          <use xlink:href="#img-15d9b7c8-12" x="59.85" y="47.69"/>
          <use xlink:href="#img-15d9b7c8-12" x="60.29" y="47.68"/>
          <use xlink:href="#img-15d9b7c8-12" x="60.73" y="47.67"/>
          <use xlink:href="#img-15d9b7c8-12" x="61.17" y="47.67"/>
          <use xlink:href="#img-15d9b7c8-12" x="61.62" y="47.66"/>
          <use xlink:href="#img-15d9b7c8-12" x="62.06" y="47.66"/>
          <use xlink:href="#img-15d9b7c8-12" x="62.5" y="47.65"/>
          <use xlink:href="#img-15d9b7c8-12" x="62.95" y="47.65"/>
          <use xlink:href="#img-15d9b7c8-12" x="63.39" y="47.65"/>
          <use xlink:href="#img-15d9b7c8-12" x="63.83" y="47.64"/>
          <use xlink:href="#img-15d9b7c8-12" x="64.28" y="47.64"/>
          <use xlink:href="#img-15d9b7c8-12" x="64.72" y="47.64"/>
          <use xlink:href="#img-15d9b7c8-12" x="65.16" y="47.64"/>
          <use xlink:href="#img-15d9b7c8-12" x="65.61" y="47.63"/>
          <use xlink:href="#img-15d9b7c8-12" x="66.05" y="47.63"/>
          <use xlink:href="#img-15d9b7c8-12" x="66.49" y="47.63"/>
          <use xlink:href="#img-15d9b7c8-12" x="66.94" y="47.63"/>
          <use xlink:href="#img-15d9b7c8-12" x="67.38" y="47.63"/>
          <use xlink:href="#img-15d9b7c8-12" x="67.82" y="47.63"/>
          <use xlink:href="#img-15d9b7c8-12" x="68.27" y="47.63"/>
          <use xlink:href="#img-15d9b7c8-12" x="68.71" y="47.63"/>
          <use xlink:href="#img-15d9b7c8-12" x="69.15" y="47.63"/>
          <use xlink:href="#img-15d9b7c8-12" x="69.6" y="47.63"/>
          <use xlink:href="#img-15d9b7c8-12" x="70.04" y="47.63"/>
          <use xlink:href="#img-15d9b7c8-12" x="70.48" y="47.63"/>
          <use xlink:href="#img-15d9b7c8-12" x="70.93" y="47.63"/>
          <use xlink:href="#img-15d9b7c8-12" x="71.37" y="47.63"/>
          <use xlink:href="#img-15d9b7c8-12" x="71.81" y="47.63"/>
          <use xlink:href="#img-15d9b7c8-12" x="72.26" y="47.63"/>
          <use xlink:href="#img-15d9b7c8-12" x="72.7" y="47.63"/>
          <use xlink:href="#img-15d9b7c8-12" x="73.14" y="47.63"/>
          <use xlink:href="#img-15d9b7c8-12" x="73.59" y="47.63"/>
          <use xlink:href="#img-15d9b7c8-12" x="74.03" y="47.64"/>
          <use xlink:href="#img-15d9b7c8-12" x="74.47" y="47.64"/>
          <use xlink:href="#img-15d9b7c8-12" x="74.92" y="47.64"/>
          <use xlink:href="#img-15d9b7c8-12" x="75.36" y="47.64"/>
          <use xlink:href="#img-15d9b7c8-12" x="75.8" y="47.64"/>
          <use xlink:href="#img-15d9b7c8-12" x="76.25" y="47.64"/>
          <use xlink:href="#img-15d9b7c8-12" x="76.69" y="47.64"/>
          <use xlink:href="#img-15d9b7c8-12" x="77.13" y="47.64"/>
          <use xlink:href="#img-15d9b7c8-12" x="77.58" y="47.64"/>
          <use xlink:href="#img-15d9b7c8-12" x="78.02" y="47.64"/>
          <use xlink:href="#img-15d9b7c8-12" x="78.46" y="47.65"/>
          <use xlink:href="#img-15d9b7c8-12" x="78.91" y="47.65"/>
          <use xlink:href="#img-15d9b7c8-12" x="79.35" y="47.65"/>
          <use xlink:href="#img-15d9b7c8-12" x="79.79" y="47.65"/>
          <use xlink:href="#img-15d9b7c8-12" x="80.24" y="47.65"/>
          <use xlink:href="#img-15d9b7c8-12" x="80.68" y="47.65"/>
          <use xlink:href="#img-15d9b7c8-12" x="81.12" y="47.65"/>
          <use xlink:href="#img-15d9b7c8-12" x="81.57" y="47.65"/>
          <use xlink:href="#img-15d9b7c8-12" x="82.01" y="47.65"/>
          <use xlink:href="#img-15d9b7c8-12" x="82.45" y="47.66"/>
          <use xlink:href="#img-15d9b7c8-12" x="82.9" y="47.66"/>
          <use xlink:href="#img-15d9b7c8-12" x="83.34" y="47.66"/>
          <use xlink:href="#img-15d9b7c8-12" x="83.78" y="47.66"/>
          <use xlink:href="#img-15d9b7c8-12" x="84.23" y="47.66"/>
          <use xlink:href="#img-15d9b7c8-12" x="84.67" y="47.66"/>
          <use xlink:href="#img-15d9b7c8-12" x="85.11" y="47.66"/>
          <use xlink:href="#img-15d9b7c8-12" x="85.56" y="47.66"/>
          <use xlink:href="#img-15d9b7c8-12" x="86" y="47.66"/>
          <use xlink:href="#img-15d9b7c8-12" x="86.44" y="47.66"/>
          <use xlink:href="#img-15d9b7c8-12" x="86.89" y="47.67"/>
          <use xlink:href="#img-15d9b7c8-12" x="87.33" y="47.67"/>
          <use xlink:href="#img-15d9b7c8-12" x="87.77" y="47.67"/>
          <use xlink:href="#img-15d9b7c8-12" x="88.22" y="47.67"/>
          <use xlink:href="#img-15d9b7c8-12" x="88.66" y="47.67"/>
          <use xlink:href="#img-15d9b7c8-12" x="89.1" y="47.67"/>
          <use xlink:href="#img-15d9b7c8-12" x="89.55" y="47.67"/>
          <use xlink:href="#img-15d9b7c8-12" x="89.99" y="47.67"/>
          <use xlink:href="#img-15d9b7c8-12" x="90.43" y="47.67"/>
          <use xlink:href="#img-15d9b7c8-12" x="90.88" y="47.67"/>
          <use xlink:href="#img-15d9b7c8-12" x="91.32" y="47.67"/>
          <use xlink:href="#img-15d9b7c8-12" x="91.76" y="47.67"/>
          <use xlink:href="#img-15d9b7c8-12" x="92.21" y="47.67"/>
          <use xlink:href="#img-15d9b7c8-12" x="92.65" y="47.68"/>
          <use xlink:href="#img-15d9b7c8-12" x="93.09" y="47.68"/>
          <use xlink:href="#img-15d9b7c8-12" x="93.54" y="47.68"/>
          <use xlink:href="#img-15d9b7c8-12" x="93.98" y="47.68"/>
          <use xlink:href="#img-15d9b7c8-12" x="94.42" y="47.68"/>
          <use xlink:href="#img-15d9b7c8-12" x="94.86" y="47.68"/>
          <use xlink:href="#img-15d9b7c8-12" x="95.31" y="47.68"/>
          <use xlink:href="#img-15d9b7c8-12" x="95.75" y="47.68"/>
          <use xlink:href="#img-15d9b7c8-12" x="96.19" y="47.68"/>
          <use xlink:href="#img-15d9b7c8-12" x="96.64" y="47.68"/>
          <use xlink:href="#img-15d9b7c8-12" x="97.08" y="47.68"/>
          <use xlink:href="#img-15d9b7c8-12" x="97.52" y="47.68"/>
          <use xlink:href="#img-15d9b7c8-12" x="97.97" y="47.68"/>
          <use xlink:href="#img-15d9b7c8-12" x="98.41" y="47.68"/>
          <use xlink:href="#img-15d9b7c8-12" x="98.85" y="47.68"/>
          <use xlink:href="#img-15d9b7c8-12" x="99.3" y="47.68"/>
          <use xlink:href="#img-15d9b7c8-12" x="99.74" y="47.68"/>
          <use xlink:href="#img-15d9b7c8-12" x="100.18" y="47.68"/>
          <use xlink:href="#img-15d9b7c8-12" x="100.63" y="47.68"/>
          <use xlink:href="#img-15d9b7c8-12" x="101.07" y="47.68"/>
          <use xlink:href="#img-15d9b7c8-12" x="101.51" y="47.68"/>
          <use xlink:href="#img-15d9b7c8-12" x="101.96" y="47.68"/>
          <use xlink:href="#img-15d9b7c8-12" x="102.4" y="47.69"/>
          <use xlink:href="#img-15d9b7c8-12" x="102.84" y="47.69"/>
          <use xlink:href="#img-15d9b7c8-12" x="103.29" y="47.69"/>
          <use xlink:href="#img-15d9b7c8-12" x="103.73" y="47.69"/>
          <use xlink:href="#img-15d9b7c8-12" x="104.17" y="47.69"/>
          <use xlink:href="#img-15d9b7c8-12" x="104.62" y="47.69"/>
          <use xlink:href="#img-15d9b7c8-12" x="105.06" y="47.69"/>
          <use xlink:href="#img-15d9b7c8-12" x="105.5" y="47.69"/>
          <use xlink:href="#img-15d9b7c8-12" x="105.95" y="47.69"/>
          <use xlink:href="#img-15d9b7c8-12" x="106.39" y="47.69"/>
          <use xlink:href="#img-15d9b7c8-12" x="106.83" y="47.69"/>
          <use xlink:href="#img-15d9b7c8-12" x="107.28" y="47.69"/>
          <use xlink:href="#img-15d9b7c8-12" x="107.72" y="47.69"/>
          <use xlink:href="#img-15d9b7c8-12" x="108.16" y="47.69"/>
          <use xlink:href="#img-15d9b7c8-12" x="108.61" y="47.69"/>
          <use xlink:href="#img-15d9b7c8-12" x="109.05" y="47.69"/>
          <use xlink:href="#img-15d9b7c8-12" x="109.49" y="47.69"/>
          <use xlink:href="#img-15d9b7c8-12" x="109.94" y="47.69"/>
          <use xlink:href="#img-15d9b7c8-12" x="110.38" y="47.69"/>
          <use xlink:href="#img-15d9b7c8-12" x="110.82" y="47.69"/>
          <use xlink:href="#img-15d9b7c8-12" x="111.27" y="47.69"/>
          <use xlink:href="#img-15d9b7c8-12" x="111.71" y="47.69"/>
          <use xlink:href="#img-15d9b7c8-12" x="112.15" y="47.69"/>
          <use xlink:href="#img-15d9b7c8-12" x="112.6" y="47.69"/>
          <use xlink:href="#img-15d9b7c8-12" x="113.04" y="47.69"/>
          <use xlink:href="#img-15d9b7c8-12" x="113.48" y="47.69"/>
          <use xlink:href="#img-15d9b7c8-12" x="113.93" y="47.69"/>
          <use xlink:href="#img-15d9b7c8-12" x="114.37" y="47.69"/>
          <use xlink:href="#img-15d9b7c8-12" x="114.81" y="47.69"/>
          <use xlink:href="#img-15d9b7c8-12" x="115.26" y="47.69"/>
          <use xlink:href="#img-15d9b7c8-12" x="115.7" y="47.69"/>
          <use xlink:href="#img-15d9b7c8-12" x="116.14" y="47.69"/>
          <use xlink:href="#img-15d9b7c8-12" x="116.59" y="47.69"/>
          <use xlink:href="#img-15d9b7c8-12" x="117.03" y="47.69"/>
          <use xlink:href="#img-15d9b7c8-12" x="117.47" y="47.69"/>
          <use xlink:href="#img-15d9b7c8-12" x="117.92" y="47.69"/>
          <use xlink:href="#img-15d9b7c8-12" x="118.36" y="47.69"/>
          <use xlink:href="#img-15d9b7c8-12" x="118.8" y="47.69"/>
          <use xlink:href="#img-15d9b7c8-12" x="119.25" y="47.69"/>
          <use xlink:href="#img-15d9b7c8-12" x="119.69" y="47.69"/>
          <use xlink:href="#img-15d9b7c8-12" x="120.13" y="47.69"/>
          <use xlink:href="#img-15d9b7c8-12" x="120.58" y="47.69"/>
          <use xlink:href="#img-15d9b7c8-12" x="121.02" y="47.69"/>
          <use xlink:href="#img-15d9b7c8-12" x="121.46" y="47.69"/>
          <use xlink:href="#img-15d9b7c8-12" x="121.91" y="47.69"/>
          <use xlink:href="#img-15d9b7c8-12" x="122.35" y="47.69"/>
          <use xlink:href="#img-15d9b7c8-12" x="122.79" y="47.69"/>
          <use xlink:href="#img-15d9b7c8-12" x="123.24" y="47.69"/>
          <use xlink:href="#img-15d9b7c8-12" x="123.68" y="47.69"/>
          <use xlink:href="#img-15d9b7c8-12" x="124.12" y="47.69"/>
          <use xlink:href="#img-15d9b7c8-12" x="124.57" y="47.69"/>
          <use xlink:href="#img-15d9b7c8-12" x="125.01" y="47.69"/>
          <use xlink:href="#img-15d9b7c8-12" x="125.45" y="47.69"/>
          <use xlink:href="#img-15d9b7c8-12" x="125.9" y="47.69"/>
          <use xlink:href="#img-15d9b7c8-12" x="126.34" y="47.69"/>
          <use xlink:href="#img-15d9b7c8-12" x="126.78" y="47.69"/>
          <use xlink:href="#img-15d9b7c8-12" x="127.23" y="47.69"/>
          <use xlink:href="#img-15d9b7c8-12" x="127.67" y="47.69"/>
          <use xlink:href="#img-15d9b7c8-12" x="128.11" y="47.69"/>
          <use xlink:href="#img-15d9b7c8-12" x="128.55" y="47.69"/>
          <use xlink:href="#img-15d9b7c8-12" x="129" y="47.69"/>
          <use xlink:href="#img-15d9b7c8-12" x="129.44" y="47.69"/>
          <use xlink:href="#img-15d9b7c8-12" x="129.88" y="47.69"/>
          <use xlink:href="#img-15d9b7c8-12" x="130.33" y="47.69"/>
          <use xlink:href="#img-15d9b7c8-12" x="130.77" y="47.69"/>
          <use xlink:href="#img-15d9b7c8-12" x="131.21" y="47.69"/>
          <use xlink:href="#img-15d9b7c8-12" x="131.66" y="47.69"/>
          <use xlink:href="#img-15d9b7c8-12" x="132.1" y="47.69"/>
          <use xlink:href="#img-15d9b7c8-12" x="132.54" y="47.69"/>
          <use xlink:href="#img-15d9b7c8-12" x="132.99" y="47.69"/>
          <use xlink:href="#img-15d9b7c8-12" x="133.43" y="47.69"/>
          <use xlink:href="#img-15d9b7c8-12" x="133.87" y="47.69"/>
          <use xlink:href="#img-15d9b7c8-12" x="134.32" y="47.69"/>
          <use xlink:href="#img-15d9b7c8-12" x="134.76" y="47.69"/>
          <use xlink:href="#img-15d9b7c8-12" x="135.2" y="47.69"/>
          <use xlink:href="#img-15d9b7c8-12" x="135.65" y="47.69"/>
          <use xlink:href="#img-15d9b7c8-12" x="136.09" y="47.69"/>
          <use xlink:href="#img-15d9b7c8-12" x="136.53" y="47.69"/>
          <use xlink:href="#img-15d9b7c8-12" x="136.98" y="47.69"/>
          <use xlink:href="#img-15d9b7c8-12" x="137.42" y="47.69"/>
          <use xlink:href="#img-15d9b7c8-12" x="137.86" y="47.69"/>
          <use xlink:href="#img-15d9b7c8-12" x="138.31" y="47.69"/>
          <use xlink:href="#img-15d9b7c8-12" x="138.75" y="47.69"/>
          <use xlink:href="#img-15d9b7c8-12" x="139.19" y="47.69"/>
          <use xlink:href="#img-15d9b7c8-12" x="139.64" y="47.69"/>
          <use xlink:href="#img-15d9b7c8-12" x="140.08" y="47.69"/>
          <use xlink:href="#img-15d9b7c8-12" x="140.52" y="47.69"/>
          <use xlink:href="#img-15d9b7c8-12" x="140.97" y="47.69"/>
          <use xlink:href="#img-15d9b7c8-12" x="141.41" y="47.69"/>
          <use xlink:href="#img-15d9b7c8-12" x="141.85" y="47.69"/>
          <use xlink:href="#img-15d9b7c8-12" x="142.3" y="47.69"/>
          <use xlink:href="#img-15d9b7c8-12" x="142.74" y="47.69"/>
          <use xlink:href="#img-15d9b7c8-12" x="143.18" y="47.69"/>
          <use xlink:href="#img-15d9b7c8-12" x="143.63" y="47.69"/>
          <use xlink:href="#img-15d9b7c8-12" x="144.07" y="47.69"/>
          <use xlink:href="#img-15d9b7c8-12" x="144.51" y="47.69"/>
          <use xlink:href="#img-15d9b7c8-12" x="144.96" y="47.69"/>
          <use xlink:href="#img-15d9b7c8-12" x="145.4" y="47.69"/>
        </g>
      </g>
    </g>
  </g>
</g>
  <g class="guide ylabels" font-size="2.82" font-family="'PT Sans Caption','Helvetica Neue','Helvetica',sans-serif" fill="#6C606B" id="img-15d9b7c8-13">
    <text x="31.58" y="54.91" text-anchor="end" dy="0.35em">0</text>
    <text x="31.58" y="42.94" text-anchor="end" dy="0.35em">2.50×10⁻⁷</text>
    <text x="31.58" y="30.96" text-anchor="end" dy="0.35em">5.00×10⁻⁷</text>
    <text x="31.58" y="18.98" text-anchor="end" dy="0.35em">7.50×10⁻⁷</text>
    <text x="31.58" y="7" text-anchor="end" dy="0.35em">1.00×10⁻⁶</text>
  </g>
  <g font-size="3.88" font-family="'PT Sans','Helvetica Neue','Helvetica',sans-serif" fill="#564A55" stroke="#000000" stroke-opacity="0.000" id="img-15d9b7c8-14">
    <text x="9.71" y="28.96" text-anchor="middle" dy="0.35em" transform="rotate(-90, 9.71, 30.96)">Relative L<tspan style="dominant-baseline:inherit" dy="0.6em" font-size="83%">2</tspan><tspan dy="-0.498000em"></tspan></text>
  </g>
</g>
<defs>
  <clipPath id="img-15d9b7c8-4">
  <path d="M32.58,5 L 147.4 5 147.4 56.91 32.58 56.91" />
</clipPath>
  <g id="img-15d9b7c8-12">
    <circle cx="0" cy="0" r="0.9"/>
  </g>
</defs>
</svg>
