<?xml version="1.0" encoding="UTF-8"?>
<svg xmlns="http://www.w3.org/2000/svg"
     xmlns:xlink="http://www.w3.org/1999/xlink"
     xmlns:gadfly="http://www.gadflyjl.org/ns"
     version="1.2"
     width="152.4mm" height="76.2mm" viewBox="0 0 152.4 76.2"
     stroke="none"
     fill="#000000"
     stroke-width="0.3"
     font-size="3.88"
>
<g class="plotroot xscalable yscalable" id="img-e7b5c876-1">
  <g font-size="3.88" font-family="'PT Sans','Helvetica Neue','Helvetica',sans-serif" fill="#564A55" stroke="#000000" stroke-opacity="0.000" id="img-e7b5c876-2">
    <text x="87.98" y="64.59" text-anchor="middle" dy="0.6em">Time (sec)</text>
  </g>
  <g class="guide xlabels" font-size="2.82" font-family="'PT Sans Caption','Helvetica Neue','Helvetica',sans-serif" fill="#6C606B" id="img-e7b5c876-3">
    <text x="30.56" y="57.91" text-anchor="middle" dy="0.6em">0</text>
    <text x="53.53" y="57.91" text-anchor="middle" dy="0.6em">5.0×10³</text>
    <text x="76.49" y="57.91" text-anchor="middle" dy="0.6em">1.0×10⁴</text>
    <text x="99.46" y="57.91" text-anchor="middle" dy="0.6em">1.5×10⁴</text>
    <text x="122.43" y="57.91" text-anchor="middle" dy="0.6em">2.0×10⁴</text>
    <text x="145.4" y="57.91" text-anchor="middle" dy="0.6em">2.5×10⁴</text>
  </g>
<g clip-path="url(#img-e7b5c876-4)">
  <g id="img-e7b5c876-5">
    <g pointer-events="visible" opacity="1" fill="#000000" fill-opacity="0.000" stroke="#000000" stroke-opacity="0.000" class="guide background" id="img-e7b5c876-6">
      <rect x="28.56" y="5" width="118.84" height="51.91"/>
    </g>
    <g class="guide ygridlines xfixed" stroke-dasharray="0.5,0.5" stroke-width="0.2" stroke="#D0D0E0" id="img-e7b5c876-7">
      <path fill="none" d="M28.56,54.91 L 147.4 54.91"/>
      <path fill="none" d="M28.56,42.94 L 147.4 42.94"/>
      <path fill="none" d="M28.56,30.96 L 147.4 30.96"/>
      <path fill="none" d="M28.56,18.98 L 147.4 18.98"/>
      <path fill="none" d="M28.56,7 L 147.4 7"/>
    </g>
    <g class="guide xgridlines yfixed" stroke-dasharray="0.5,0.5" stroke-width="0.2" stroke="#D0D0E0" id="img-e7b5c876-8">
      <path fill="none" d="M30.56,5 L 30.56 56.91"/>
      <path fill="none" d="M53.53,5 L 53.53 56.91"/>
      <path fill="none" d="M76.49,5 L 76.49 56.91"/>
      <path fill="none" d="M99.46,5 L 99.46 56.91"/>
      <path fill="none" d="M122.43,5 L 122.43 56.91"/>
      <path fill="none" d="M145.4,5 L 145.4 56.91"/>
    </g>
    <g class="plotpanel" id="img-e7b5c876-9">
      <g class="geometry" id="img-e7b5c876-10">
        <g class="color_RGBA{Float32}(0.0f0,0.74736935f0,1.0f0,1.0f0)" stroke="#FFFFFF" stroke-width="0.3" fill="#00BFFF" id="img-e7b5c876-11">
          <use xlink:href="#img-e7b5c876-12" x="30.56" y="10.2"/>
          <use xlink:href="#img-e7b5c876-12" x="31.02" y="54.91"/>
          <use xlink:href="#img-e7b5c876-12" x="31.48" y="54.91"/>
          <use xlink:href="#img-e7b5c876-12" x="31.94" y="54.91"/>
          <use xlink:href="#img-e7b5c876-12" x="32.39" y="54.91"/>
          <use xlink:href="#img-e7b5c876-12" x="32.85" y="54.91"/>
          <use xlink:href="#img-e7b5c876-12" x="33.31" y="54.91"/>
          <use xlink:href="#img-e7b5c876-12" x="33.77" y="54.91"/>
          <use xlink:href="#img-e7b5c876-12" x="34.23" y="54.91"/>
          <use xlink:href="#img-e7b5c876-12" x="34.69" y="54.91"/>
          <use xlink:href="#img-e7b5c876-12" x="35.15" y="54.91"/>
          <use xlink:href="#img-e7b5c876-12" x="35.61" y="54.91"/>
          <use xlink:href="#img-e7b5c876-12" x="36.07" y="54.91"/>
          <use xlink:href="#img-e7b5c876-12" x="36.53" y="54.91"/>
          <use xlink:href="#img-e7b5c876-12" x="36.99" y="54.91"/>
          <use xlink:href="#img-e7b5c876-12" x="37.45" y="54.91"/>
          <use xlink:href="#img-e7b5c876-12" x="37.91" y="54.91"/>
          <use xlink:href="#img-e7b5c876-12" x="38.37" y="54.91"/>
          <use xlink:href="#img-e7b5c876-12" x="38.83" y="54.91"/>
          <use xlink:href="#img-e7b5c876-12" x="39.29" y="54.91"/>
          <use xlink:href="#img-e7b5c876-12" x="39.74" y="54.91"/>
          <use xlink:href="#img-e7b5c876-12" x="40.2" y="54.91"/>
          <use xlink:href="#img-e7b5c876-12" x="40.66" y="54.91"/>
          <use xlink:href="#img-e7b5c876-12" x="41.12" y="54.91"/>
          <use xlink:href="#img-e7b5c876-12" x="41.58" y="54.91"/>
          <use xlink:href="#img-e7b5c876-12" x="42.04" y="54.91"/>
          <use xlink:href="#img-e7b5c876-12" x="42.5" y="54.91"/>
          <use xlink:href="#img-e7b5c876-12" x="42.96" y="54.91"/>
          <use xlink:href="#img-e7b5c876-12" x="43.42" y="54.91"/>
          <use xlink:href="#img-e7b5c876-12" x="43.88" y="54.91"/>
          <use xlink:href="#img-e7b5c876-12" x="44.34" y="54.91"/>
          <use xlink:href="#img-e7b5c876-12" x="44.8" y="54.91"/>
          <use xlink:href="#img-e7b5c876-12" x="45.26" y="54.91"/>
          <use xlink:href="#img-e7b5c876-12" x="45.72" y="54.91"/>
          <use xlink:href="#img-e7b5c876-12" x="46.18" y="54.91"/>
          <use xlink:href="#img-e7b5c876-12" x="46.64" y="54.91"/>
          <use xlink:href="#img-e7b5c876-12" x="47.09" y="54.91"/>
          <use xlink:href="#img-e7b5c876-12" x="47.55" y="54.91"/>
          <use xlink:href="#img-e7b5c876-12" x="48.01" y="54.91"/>
          <use xlink:href="#img-e7b5c876-12" x="48.47" y="54.91"/>
          <use xlink:href="#img-e7b5c876-12" x="48.93" y="54.91"/>
          <use xlink:href="#img-e7b5c876-12" x="49.39" y="54.91"/>
          <use xlink:href="#img-e7b5c876-12" x="49.85" y="54.91"/>
          <use xlink:href="#img-e7b5c876-12" x="50.31" y="54.91"/>
          <use xlink:href="#img-e7b5c876-12" x="50.77" y="54.91"/>
          <use xlink:href="#img-e7b5c876-12" x="51.23" y="54.91"/>
          <use xlink:href="#img-e7b5c876-12" x="51.69" y="54.91"/>
          <use xlink:href="#img-e7b5c876-12" x="52.15" y="54.91"/>
          <use xlink:href="#img-e7b5c876-12" x="52.61" y="54.91"/>
          <use xlink:href="#img-e7b5c876-12" x="53.07" y="54.91"/>
          <use xlink:href="#img-e7b5c876-12" x="53.53" y="54.91"/>
          <use xlink:href="#img-e7b5c876-12" x="53.99" y="54.91"/>
          <use xlink:href="#img-e7b5c876-12" x="54.44" y="54.91"/>
          <use xlink:href="#img-e7b5c876-12" x="54.9" y="54.91"/>
          <use xlink:href="#img-e7b5c876-12" x="55.36" y="54.91"/>
          <use xlink:href="#img-e7b5c876-12" x="55.82" y="54.91"/>
          <use xlink:href="#img-e7b5c876-12" x="56.28" y="54.91"/>
          <use xlink:href="#img-e7b5c876-12" x="56.74" y="54.91"/>
          <use xlink:href="#img-e7b5c876-12" x="57.2" y="54.91"/>
          <use xlink:href="#img-e7b5c876-12" x="57.66" y="54.91"/>
          <use xlink:href="#img-e7b5c876-12" x="58.12" y="54.91"/>
          <use xlink:href="#img-e7b5c876-12" x="58.58" y="54.91"/>
          <use xlink:href="#img-e7b5c876-12" x="59.04" y="54.91"/>
          <use xlink:href="#img-e7b5c876-12" x="59.5" y="54.91"/>
          <use xlink:href="#img-e7b5c876-12" x="59.96" y="54.91"/>
          <use xlink:href="#img-e7b5c876-12" x="60.42" y="54.91"/>
          <use xlink:href="#img-e7b5c876-12" x="60.88" y="54.91"/>
          <use xlink:href="#img-e7b5c876-12" x="61.34" y="54.91"/>
          <use xlink:href="#img-e7b5c876-12" x="61.79" y="54.91"/>
          <use xlink:href="#img-e7b5c876-12" x="62.25" y="54.91"/>
          <use xlink:href="#img-e7b5c876-12" x="62.71" y="54.91"/>
          <use xlink:href="#img-e7b5c876-12" x="63.17" y="54.91"/>
          <use xlink:href="#img-e7b5c876-12" x="63.63" y="54.91"/>
          <use xlink:href="#img-e7b5c876-12" x="64.09" y="54.91"/>
          <use xlink:href="#img-e7b5c876-12" x="64.55" y="54.91"/>
          <use xlink:href="#img-e7b5c876-12" x="65.01" y="54.91"/>
          <use xlink:href="#img-e7b5c876-12" x="65.47" y="54.91"/>
          <use xlink:href="#img-e7b5c876-12" x="65.93" y="54.91"/>
          <use xlink:href="#img-e7b5c876-12" x="66.39" y="54.91"/>
          <use xlink:href="#img-e7b5c876-12" x="66.85" y="54.91"/>
          <use xlink:href="#img-e7b5c876-12" x="67.31" y="54.91"/>
          <use xlink:href="#img-e7b5c876-12" x="67.77" y="54.91"/>
          <use xlink:href="#img-e7b5c876-12" x="68.23" y="54.91"/>
          <use xlink:href="#img-e7b5c876-12" x="68.69" y="54.91"/>
          <use xlink:href="#img-e7b5c876-12" x="69.14" y="54.91"/>
          <use xlink:href="#img-e7b5c876-12" x="69.6" y="54.91"/>
          <use xlink:href="#img-e7b5c876-12" x="70.06" y="54.91"/>
          <use xlink:href="#img-e7b5c876-12" x="70.52" y="54.91"/>
          <use xlink:href="#img-e7b5c876-12" x="70.98" y="54.91"/>
          <use xlink:href="#img-e7b5c876-12" x="71.44" y="54.91"/>
          <use xlink:href="#img-e7b5c876-12" x="71.9" y="54.91"/>
          <use xlink:href="#img-e7b5c876-12" x="72.36" y="54.91"/>
          <use xlink:href="#img-e7b5c876-12" x="72.82" y="54.91"/>
          <use xlink:href="#img-e7b5c876-12" x="73.28" y="54.91"/>
          <use xlink:href="#img-e7b5c876-12" x="73.74" y="54.91"/>
          <use xlink:href="#img-e7b5c876-12" x="74.2" y="54.91"/>
          <use xlink:href="#img-e7b5c876-12" x="74.66" y="54.91"/>
          <use xlink:href="#img-e7b5c876-12" x="75.12" y="54.91"/>
          <use xlink:href="#img-e7b5c876-12" x="75.58" y="54.91"/>
          <use xlink:href="#img-e7b5c876-12" x="76.04" y="54.91"/>
          <use xlink:href="#img-e7b5c876-12" x="76.49" y="54.91"/>
          <use xlink:href="#img-e7b5c876-12" x="76.95" y="54.91"/>
          <use xlink:href="#img-e7b5c876-12" x="77.41" y="54.91"/>
          <use xlink:href="#img-e7b5c876-12" x="77.87" y="54.91"/>
          <use xlink:href="#img-e7b5c876-12" x="78.33" y="54.91"/>
          <use xlink:href="#img-e7b5c876-12" x="78.79" y="54.91"/>
          <use xlink:href="#img-e7b5c876-12" x="79.25" y="54.91"/>
          <use xlink:href="#img-e7b5c876-12" x="79.71" y="54.91"/>
          <use xlink:href="#img-e7b5c876-12" x="80.17" y="54.91"/>
          <use xlink:href="#img-e7b5c876-12" x="80.63" y="54.91"/>
          <use xlink:href="#img-e7b5c876-12" x="81.09" y="54.91"/>
          <use xlink:href="#img-e7b5c876-12" x="81.55" y="54.91"/>
          <use xlink:href="#img-e7b5c876-12" x="82.01" y="54.91"/>
          <use xlink:href="#img-e7b5c876-12" x="82.47" y="54.91"/>
          <use xlink:href="#img-e7b5c876-12" x="82.93" y="54.91"/>
          <use xlink:href="#img-e7b5c876-12" x="83.39" y="54.91"/>
          <use xlink:href="#img-e7b5c876-12" x="83.84" y="54.91"/>
          <use xlink:href="#img-e7b5c876-12" x="84.3" y="54.91"/>
          <use xlink:href="#img-e7b5c876-12" x="84.76" y="54.91"/>
          <use xlink:href="#img-e7b5c876-12" x="85.22" y="54.91"/>
          <use xlink:href="#img-e7b5c876-12" x="85.68" y="54.91"/>
          <use xlink:href="#img-e7b5c876-12" x="86.14" y="54.91"/>
          <use xlink:href="#img-e7b5c876-12" x="86.6" y="54.91"/>
          <use xlink:href="#img-e7b5c876-12" x="87.06" y="54.91"/>
          <use xlink:href="#img-e7b5c876-12" x="87.52" y="54.91"/>
          <use xlink:href="#img-e7b5c876-12" x="87.98" y="54.91"/>
          <use xlink:href="#img-e7b5c876-12" x="88.44" y="54.91"/>
          <use xlink:href="#img-e7b5c876-12" x="88.9" y="54.86"/>
          <use xlink:href="#img-e7b5c876-12" x="89.36" y="54.81"/>
          <use xlink:href="#img-e7b5c876-12" x="89.82" y="54.8"/>
          <use xlink:href="#img-e7b5c876-12" x="90.28" y="54.79"/>
          <use xlink:href="#img-e7b5c876-12" x="90.73" y="54.78"/>
          <use xlink:href="#img-e7b5c876-12" x="91.19" y="54.78"/>
          <use xlink:href="#img-e7b5c876-12" x="91.65" y="54.77"/>
          <use xlink:href="#img-e7b5c876-12" x="92.11" y="54.76"/>
          <use xlink:href="#img-e7b5c876-12" x="92.57" y="54.75"/>
          <use xlink:href="#img-e7b5c876-12" x="93.03" y="54.74"/>
          <use xlink:href="#img-e7b5c876-12" x="93.49" y="54.72"/>
          <use xlink:href="#img-e7b5c876-12" x="93.95" y="54.71"/>
          <use xlink:href="#img-e7b5c876-12" x="94.41" y="54.7"/>
          <use xlink:href="#img-e7b5c876-12" x="94.87" y="54.69"/>
          <use xlink:href="#img-e7b5c876-12" x="95.33" y="54.67"/>
          <use xlink:href="#img-e7b5c876-12" x="95.79" y="54.66"/>
          <use xlink:href="#img-e7b5c876-12" x="96.25" y="54.64"/>
          <use xlink:href="#img-e7b5c876-12" x="96.71" y="54.62"/>
          <use xlink:href="#img-e7b5c876-12" x="97.17" y="54.6"/>
          <use xlink:href="#img-e7b5c876-12" x="97.63" y="54.58"/>
          <use xlink:href="#img-e7b5c876-12" x="98.08" y="54.56"/>
          <use xlink:href="#img-e7b5c876-12" x="98.54" y="54.54"/>
          <use xlink:href="#img-e7b5c876-12" x="99" y="54.52"/>
          <use xlink:href="#img-e7b5c876-12" x="99.46" y="54.49"/>
          <use xlink:href="#img-e7b5c876-12" x="99.92" y="54.46"/>
          <use xlink:href="#img-e7b5c876-12" x="100.38" y="54.44"/>
          <use xlink:href="#img-e7b5c876-12" x="100.84" y="54.4"/>
          <use xlink:href="#img-e7b5c876-12" x="101.3" y="54.37"/>
          <use xlink:href="#img-e7b5c876-12" x="101.76" y="54.34"/>
          <use xlink:href="#img-e7b5c876-12" x="102.22" y="54.3"/>
          <use xlink:href="#img-e7b5c876-12" x="102.68" y="54.26"/>
          <use xlink:href="#img-e7b5c876-12" x="103.14" y="54.22"/>
          <use xlink:href="#img-e7b5c876-12" x="103.6" y="54.18"/>
          <use xlink:href="#img-e7b5c876-12" x="104.06" y="54.13"/>
          <use xlink:href="#img-e7b5c876-12" x="104.52" y="54.09"/>
          <use xlink:href="#img-e7b5c876-12" x="104.98" y="54.03"/>
          <use xlink:href="#img-e7b5c876-12" x="105.43" y="53.98"/>
          <use xlink:href="#img-e7b5c876-12" x="105.89" y="53.92"/>
          <use xlink:href="#img-e7b5c876-12" x="106.35" y="53.86"/>
          <use xlink:href="#img-e7b5c876-12" x="106.81" y="53.79"/>
          <use xlink:href="#img-e7b5c876-12" x="107.27" y="53.73"/>
          <use xlink:href="#img-e7b5c876-12" x="107.73" y="53.65"/>
          <use xlink:href="#img-e7b5c876-12" x="108.19" y="53.58"/>
          <use xlink:href="#img-e7b5c876-12" x="108.65" y="53.49"/>
          <use xlink:href="#img-e7b5c876-12" x="109.11" y="53.41"/>
          <use xlink:href="#img-e7b5c876-12" x="109.57" y="53.31"/>
          <use xlink:href="#img-e7b5c876-12" x="110.03" y="53.21"/>
          <use xlink:href="#img-e7b5c876-12" x="110.49" y="53.12"/>
          <use xlink:href="#img-e7b5c876-12" x="110.95" y="53.01"/>
          <use xlink:href="#img-e7b5c876-12" x="111.41" y="52.88"/>
          <use xlink:href="#img-e7b5c876-12" x="111.87" y="52.77"/>
          <use xlink:href="#img-e7b5c876-12" x="112.33" y="52.61"/>
          <use xlink:href="#img-e7b5c876-12" x="112.78" y="52.47"/>
          <use xlink:href="#img-e7b5c876-12" x="113.24" y="52.33"/>
          <use xlink:href="#img-e7b5c876-12" x="113.7" y="52.19"/>
          <use xlink:href="#img-e7b5c876-12" x="114.16" y="52.03"/>
          <use xlink:href="#img-e7b5c876-12" x="114.62" y="51.86"/>
          <use xlink:href="#img-e7b5c876-12" x="115.08" y="51.68"/>
          <use xlink:href="#img-e7b5c876-12" x="115.54" y="51.47"/>
          <use xlink:href="#img-e7b5c876-12" x="116" y="51.26"/>
          <use xlink:href="#img-e7b5c876-12" x="116.46" y="51.05"/>
          <use xlink:href="#img-e7b5c876-12" x="116.92" y="50.81"/>
          <use xlink:href="#img-e7b5c876-12" x="117.38" y="50.62"/>
          <use xlink:href="#img-e7b5c876-12" x="117.84" y="50.4"/>
          <use xlink:href="#img-e7b5c876-12" x="118.3" y="50.01"/>
          <use xlink:href="#img-e7b5c876-12" x="118.76" y="49.81"/>
          <use xlink:href="#img-e7b5c876-12" x="119.22" y="49.55"/>
          <use xlink:href="#img-e7b5c876-12" x="119.68" y="49.13"/>
          <use xlink:href="#img-e7b5c876-12" x="120.13" y="48.79"/>
          <use xlink:href="#img-e7b5c876-12" x="120.59" y="48.65"/>
          <use xlink:href="#img-e7b5c876-12" x="121.05" y="48.18"/>
          <use xlink:href="#img-e7b5c876-12" x="121.51" y="47.69"/>
          <use xlink:href="#img-e7b5c876-12" x="121.97" y="47.33"/>
          <use xlink:href="#img-e7b5c876-12" x="122.43" y="46.63"/>
          <use xlink:href="#img-e7b5c876-12" x="122.89" y="46.52"/>
          <use xlink:href="#img-e7b5c876-12" x="123.35" y="45.93"/>
          <use xlink:href="#img-e7b5c876-12" x="123.81" y="45.31"/>
          <use xlink:href="#img-e7b5c876-12" x="124.27" y="45.02"/>
          <use xlink:href="#img-e7b5c876-12" x="124.73" y="44.65"/>
          <use xlink:href="#img-e7b5c876-12" x="125.19" y="43.87"/>
          <use xlink:href="#img-e7b5c876-12" x="125.65" y="43.3"/>
          <use xlink:href="#img-e7b5c876-12" x="126.11" y="42.88"/>
          <use xlink:href="#img-e7b5c876-12" x="126.57" y="42.35"/>
          <use xlink:href="#img-e7b5c876-12" x="127.03" y="41.77"/>
          <use xlink:href="#img-e7b5c876-12" x="127.48" y="40.54"/>
          <use xlink:href="#img-e7b5c876-12" x="127.94" y="39.84"/>
          <use xlink:href="#img-e7b5c876-12" x="128.4" y="39.28"/>
          <use xlink:href="#img-e7b5c876-12" x="128.86" y="38.91"/>
          <use xlink:href="#img-e7b5c876-12" x="129.32" y="38.06"/>
          <use xlink:href="#img-e7b5c876-12" x="129.78" y="38.17"/>
          <use xlink:href="#img-e7b5c876-12" x="130.24" y="37.38"/>
          <use xlink:href="#img-e7b5c876-12" x="130.7" y="35.29"/>
          <use xlink:href="#img-e7b5c876-12" x="131.16" y="34.63"/>
          <use xlink:href="#img-e7b5c876-12" x="131.62" y="34.53"/>
          <use xlink:href="#img-e7b5c876-12" x="132.08" y="34.6"/>
          <use xlink:href="#img-e7b5c876-12" x="132.54" y="34.18"/>
          <use xlink:href="#img-e7b5c876-12" x="133" y="30.02"/>
          <use xlink:href="#img-e7b5c876-12" x="133.46" y="32.09"/>
          <use xlink:href="#img-e7b5c876-12" x="133.92" y="31.03"/>
          <use xlink:href="#img-e7b5c876-12" x="134.38" y="30.46"/>
          <use xlink:href="#img-e7b5c876-12" x="134.83" y="30.76"/>
          <use xlink:href="#img-e7b5c876-12" x="135.29" y="29.4"/>
          <use xlink:href="#img-e7b5c876-12" x="135.75" y="28.1"/>
          <use xlink:href="#img-e7b5c876-12" x="136.21" y="22.97"/>
          <use xlink:href="#img-e7b5c876-12" x="136.67" y="23.9"/>
          <use xlink:href="#img-e7b5c876-12" x="137.13" y="28.39"/>
          <use xlink:href="#img-e7b5c876-12" x="137.59" y="26.72"/>
          <use xlink:href="#img-e7b5c876-12" x="138.05" y="26.91"/>
          <use xlink:href="#img-e7b5c876-12" x="138.51" y="23.15"/>
          <use xlink:href="#img-e7b5c876-12" x="138.97" y="20.07"/>
          <use xlink:href="#img-e7b5c876-12" x="139.43" y="15.34"/>
          <use xlink:href="#img-e7b5c876-12" x="139.89" y="16.92"/>
          <use xlink:href="#img-e7b5c876-12" x="140.35" y="18.64"/>
          <use xlink:href="#img-e7b5c876-12" x="140.81" y="22.91"/>
          <use xlink:href="#img-e7b5c876-12" x="141.27" y="25.3"/>
          <use xlink:href="#img-e7b5c876-12" x="141.73" y="16.9"/>
          <use xlink:href="#img-e7b5c876-12" x="142.18" y="12.56"/>
          <use xlink:href="#img-e7b5c876-12" x="142.64" y="9.95"/>
          <use xlink:href="#img-e7b5c876-12" x="143.1" y="21.57"/>
          <use xlink:href="#img-e7b5c876-12" x="143.56" y="22.58"/>
          <use xlink:href="#img-e7b5c876-12" x="144.02" y="15.23"/>
          <use xlink:href="#img-e7b5c876-12" x="144.48" y="17.2"/>
          <use xlink:href="#img-e7b5c876-12" x="144.94" y="13.24"/>
          <use xlink:href="#img-e7b5c876-12" x="145.4" y="10.2"/>
        </g>
      </g>
    </g>
  </g>
</g>
  <g class="guide ylabels" font-size="2.82" font-family="'PT Sans Caption','Helvetica Neue','Helvetica',sans-serif" fill="#6C606B" id="img-e7b5c876-13">
    <text x="27.56" y="54.91" text-anchor="end" dy="0.35em">0</text>
    <text x="27.56" y="42.94" text-anchor="end" dy="0.35em">1×10¹⁰</text>
    <text x="27.56" y="30.96" text-anchor="end" dy="0.35em">2×10¹⁰</text>
    <text x="27.56" y="18.98" text-anchor="end" dy="0.35em">3×10¹⁰</text>
    <text x="27.56" y="7" text-anchor="end" dy="0.35em">4×10¹⁰</text>
  </g>
  <g font-size="3.88" font-family="'PT Sans','Helvetica Neue','Helvetica',sans-serif" fill="#564A55" stroke="#000000" stroke-opacity="0.000" id="img-e7b5c876-14">
    <text x="9.71" y="28.96" text-anchor="middle" dy="0.35em" transform="rotate(-90, 9.71, 30.96)">Relative L<tspan style="dominant-baseline:inherit" dy="0.6em" font-size="83%">2</tspan><tspan dy="-0.498000em"></tspan></text>
  </g>
</g>
<defs>
  <clipPath id="img-e7b5c876-4">
  <path d="M28.56,5 L 147.4 5 147.4 56.91 28.56 56.91" />
</clipPath>
  <g id="img-e7b5c876-12">
    <circle cx="0" cy="0" r="0.9"/>
  </g>
</defs>
</svg>
