<?xml version="1.0" encoding="UTF-8"?>
<svg xmlns="http://www.w3.org/2000/svg"
     xmlns:xlink="http://www.w3.org/1999/xlink"
     xmlns:gadfly="http://www.gadflyjl.org/ns"
     version="1.2"
     width="152.4mm" height="76.2mm" viewBox="0 0 152.4 76.2"
     stroke="none"
     fill="#000000"
     stroke-width="0.3"
     font-size="3.88"
>
<g class="plotroot xscalable yscalable" id="img-3d3219d6-1">
  <g font-size="3.88" font-family="'PT Sans','Helvetica Neue','Helvetica',sans-serif" fill="#564A55" stroke="#000000" stroke-opacity="0.000" id="img-3d3219d6-2">
    <text x="87.97" y="64.59" text-anchor="middle" dy="0.6em">Time (sec)</text>
  </g>
  <g class="guide xlabels" font-size="2.82" font-family="'PT Sans Caption','Helvetica Neue','Helvetica',sans-serif" fill="#6C606B" id="img-3d3219d6-3">
    <text x="30.53" y="57.91" text-anchor="middle" dy="0.6em">0</text>
    <text x="53.5" y="57.91" text-anchor="middle" dy="0.6em">5.0×10³</text>
    <text x="76.48" y="57.91" text-anchor="middle" dy="0.6em">1.0×10⁴</text>
    <text x="99.45" y="57.91" text-anchor="middle" dy="0.6em">1.5×10⁴</text>
    <text x="122.43" y="57.91" text-anchor="middle" dy="0.6em">2.0×10⁴</text>
    <text x="145.4" y="57.91" text-anchor="middle" dy="0.6em">2.5×10⁴</text>
  </g>
<g clip-path="url(#img-3d3219d6-4)">
  <g id="img-3d3219d6-5">
    <g pointer-events="visible" opacity="1" fill="#000000" fill-opacity="0.000" stroke="#000000" stroke-opacity="0.000" class="guide background" id="img-3d3219d6-6">
      <rect x="28.53" y="5" width="118.87" height="51.91"/>
    </g>
    <g class="guide ygridlines xfixed" stroke-dasharray="0.5,0.5" stroke-width="0.2" stroke="#D0D0E0" id="img-3d3219d6-7">
      <path fill="none" d="M28.53,54.91 L 147.4 54.91"/>
      <path fill="none" d="M28.53,30.96 L 147.4 30.96"/>
      <path fill="none" d="M28.53,7 L 147.4 7"/>
    </g>
    <g class="guide xgridlines yfixed" stroke-dasharray="0.5,0.5" stroke-width="0.2" stroke="#D0D0E0" id="img-3d3219d6-8">
      <path fill="none" d="M30.53,5 L 30.53 56.91"/>
      <path fill="none" d="M53.5,5 L 53.5 56.91"/>
      <path fill="none" d="M76.48,5 L 76.48 56.91"/>
      <path fill="none" d="M99.45,5 L 99.45 56.91"/>
      <path fill="none" d="M122.43,5 L 122.43 56.91"/>
      <path fill="none" d="M145.4,5 L 145.4 56.91"/>
    </g>
    <g class="plotpanel" id="img-3d3219d6-9">
      <g class="geometry" id="img-3d3219d6-10">
        <g class="color_RGBA{Float32}(0.0f0,0.74736935f0,1.0f0,1.0f0)" stroke="#FFFFFF" stroke-width="0.3" fill="#00BFFF" id="img-3d3219d6-11">
          <use xlink:href="#img-3d3219d6-12" x="30.53" y="8.4"/>
          <use xlink:href="#img-3d3219d6-12" x="30.99" y="54.91"/>
          <use xlink:href="#img-3d3219d6-12" x="31.45" y="54.91"/>
          <use xlink:href="#img-3d3219d6-12" x="31.91" y="54.91"/>
          <use xlink:href="#img-3d3219d6-12" x="32.37" y="54.91"/>
          <use xlink:href="#img-3d3219d6-12" x="32.83" y="54.91"/>
          <use xlink:href="#img-3d3219d6-12" x="33.29" y="54.91"/>
          <use xlink:href="#img-3d3219d6-12" x="33.75" y="54.9"/>
          <use xlink:href="#img-3d3219d6-12" x="34.21" y="54.9"/>
          <use xlink:href="#img-3d3219d6-12" x="34.67" y="54.91"/>
          <use xlink:href="#img-3d3219d6-12" x="35.13" y="54.91"/>
          <use xlink:href="#img-3d3219d6-12" x="35.59" y="54.91"/>
          <use xlink:href="#img-3d3219d6-12" x="36.04" y="54.91"/>
          <use xlink:href="#img-3d3219d6-12" x="36.5" y="54.91"/>
          <use xlink:href="#img-3d3219d6-12" x="36.96" y="54.91"/>
          <use xlink:href="#img-3d3219d6-12" x="37.42" y="54.9"/>
          <use xlink:href="#img-3d3219d6-12" x="37.88" y="54.9"/>
          <use xlink:href="#img-3d3219d6-12" x="38.34" y="54.9"/>
          <use xlink:href="#img-3d3219d6-12" x="38.8" y="54.9"/>
          <use xlink:href="#img-3d3219d6-12" x="39.26" y="54.9"/>
          <use xlink:href="#img-3d3219d6-12" x="39.72" y="54.9"/>
          <use xlink:href="#img-3d3219d6-12" x="40.18" y="54.89"/>
          <use xlink:href="#img-3d3219d6-12" x="40.64" y="54.89"/>
          <use xlink:href="#img-3d3219d6-12" x="41.1" y="54.88"/>
          <use xlink:href="#img-3d3219d6-12" x="41.56" y="54.87"/>
          <use xlink:href="#img-3d3219d6-12" x="42.02" y="54.86"/>
          <use xlink:href="#img-3d3219d6-12" x="42.48" y="54.85"/>
          <use xlink:href="#img-3d3219d6-12" x="42.94" y="54.83"/>
          <use xlink:href="#img-3d3219d6-12" x="43.4" y="54.8"/>
          <use xlink:href="#img-3d3219d6-12" x="43.86" y="54.76"/>
          <use xlink:href="#img-3d3219d6-12" x="44.32" y="54.73"/>
          <use xlink:href="#img-3d3219d6-12" x="44.77" y="54.73"/>
          <use xlink:href="#img-3d3219d6-12" x="45.23" y="54.76"/>
          <use xlink:href="#img-3d3219d6-12" x="45.69" y="54.78"/>
          <use xlink:href="#img-3d3219d6-12" x="46.15" y="54.8"/>
          <use xlink:href="#img-3d3219d6-12" x="46.61" y="54.81"/>
          <use xlink:href="#img-3d3219d6-12" x="47.07" y="54.82"/>
          <use xlink:href="#img-3d3219d6-12" x="47.53" y="54.83"/>
          <use xlink:href="#img-3d3219d6-12" x="47.99" y="54.84"/>
          <use xlink:href="#img-3d3219d6-12" x="48.45" y="54.84"/>
          <use xlink:href="#img-3d3219d6-12" x="48.91" y="54.85"/>
          <use xlink:href="#img-3d3219d6-12" x="49.37" y="54.85"/>
          <use xlink:href="#img-3d3219d6-12" x="49.83" y="54.85"/>
          <use xlink:href="#img-3d3219d6-12" x="50.29" y="54.85"/>
          <use xlink:href="#img-3d3219d6-12" x="50.75" y="54.86"/>
          <use xlink:href="#img-3d3219d6-12" x="51.21" y="54.86"/>
          <use xlink:href="#img-3d3219d6-12" x="51.67" y="54.86"/>
          <use xlink:href="#img-3d3219d6-12" x="52.13" y="54.86"/>
          <use xlink:href="#img-3d3219d6-12" x="52.59" y="54.86"/>
          <use xlink:href="#img-3d3219d6-12" x="53.05" y="54.86"/>
          <use xlink:href="#img-3d3219d6-12" x="53.5" y="54.86"/>
          <use xlink:href="#img-3d3219d6-12" x="53.96" y="54.86"/>
          <use xlink:href="#img-3d3219d6-12" x="54.42" y="54.86"/>
          <use xlink:href="#img-3d3219d6-12" x="54.88" y="54.86"/>
          <use xlink:href="#img-3d3219d6-12" x="55.34" y="54.86"/>
          <use xlink:href="#img-3d3219d6-12" x="55.8" y="54.86"/>
          <use xlink:href="#img-3d3219d6-12" x="56.26" y="54.86"/>
          <use xlink:href="#img-3d3219d6-12" x="56.72" y="54.86"/>
          <use xlink:href="#img-3d3219d6-12" x="57.18" y="54.86"/>
          <use xlink:href="#img-3d3219d6-12" x="57.64" y="54.85"/>
          <use xlink:href="#img-3d3219d6-12" x="58.1" y="54.85"/>
          <use xlink:href="#img-3d3219d6-12" x="58.56" y="54.85"/>
          <use xlink:href="#img-3d3219d6-12" x="59.02" y="54.85"/>
          <use xlink:href="#img-3d3219d6-12" x="59.48" y="54.85"/>
          <use xlink:href="#img-3d3219d6-12" x="59.94" y="54.85"/>
          <use xlink:href="#img-3d3219d6-12" x="60.4" y="54.85"/>
          <use xlink:href="#img-3d3219d6-12" x="60.86" y="54.85"/>
          <use xlink:href="#img-3d3219d6-12" x="61.32" y="54.84"/>
          <use xlink:href="#img-3d3219d6-12" x="61.78" y="54.84"/>
          <use xlink:href="#img-3d3219d6-12" x="62.23" y="54.84"/>
          <use xlink:href="#img-3d3219d6-12" x="62.69" y="54.84"/>
          <use xlink:href="#img-3d3219d6-12" x="63.15" y="54.84"/>
          <use xlink:href="#img-3d3219d6-12" x="63.61" y="54.84"/>
          <use xlink:href="#img-3d3219d6-12" x="64.07" y="54.83"/>
          <use xlink:href="#img-3d3219d6-12" x="64.53" y="54.83"/>
          <use xlink:href="#img-3d3219d6-12" x="64.99" y="54.83"/>
          <use xlink:href="#img-3d3219d6-12" x="65.45" y="54.83"/>
          <use xlink:href="#img-3d3219d6-12" x="65.91" y="54.82"/>
          <use xlink:href="#img-3d3219d6-12" x="66.37" y="54.82"/>
          <use xlink:href="#img-3d3219d6-12" x="66.83" y="54.82"/>
          <use xlink:href="#img-3d3219d6-12" x="67.29" y="54.82"/>
          <use xlink:href="#img-3d3219d6-12" x="67.75" y="54.81"/>
          <use xlink:href="#img-3d3219d6-12" x="68.21" y="54.81"/>
          <use xlink:href="#img-3d3219d6-12" x="68.67" y="54.81"/>
          <use xlink:href="#img-3d3219d6-12" x="69.13" y="54.8"/>
          <use xlink:href="#img-3d3219d6-12" x="69.59" y="54.8"/>
          <use xlink:href="#img-3d3219d6-12" x="70.05" y="54.8"/>
          <use xlink:href="#img-3d3219d6-12" x="70.51" y="54.79"/>
          <use xlink:href="#img-3d3219d6-12" x="70.96" y="54.79"/>
          <use xlink:href="#img-3d3219d6-12" x="71.42" y="54.79"/>
          <use xlink:href="#img-3d3219d6-12" x="71.88" y="54.78"/>
          <use xlink:href="#img-3d3219d6-12" x="72.34" y="54.78"/>
          <use xlink:href="#img-3d3219d6-12" x="72.8" y="54.77"/>
          <use xlink:href="#img-3d3219d6-12" x="73.26" y="54.77"/>
          <use xlink:href="#img-3d3219d6-12" x="73.72" y="54.76"/>
          <use xlink:href="#img-3d3219d6-12" x="74.18" y="54.76"/>
          <use xlink:href="#img-3d3219d6-12" x="74.64" y="54.75"/>
          <use xlink:href="#img-3d3219d6-12" x="75.1" y="54.75"/>
          <use xlink:href="#img-3d3219d6-12" x="75.56" y="54.74"/>
          <use xlink:href="#img-3d3219d6-12" x="76.02" y="54.74"/>
          <use xlink:href="#img-3d3219d6-12" x="76.48" y="54.73"/>
          <use xlink:href="#img-3d3219d6-12" x="76.94" y="54.73"/>
          <use xlink:href="#img-3d3219d6-12" x="77.4" y="54.72"/>
          <use xlink:href="#img-3d3219d6-12" x="77.86" y="54.71"/>
          <use xlink:href="#img-3d3219d6-12" x="78.32" y="54.71"/>
          <use xlink:href="#img-3d3219d6-12" x="78.78" y="54.7"/>
          <use xlink:href="#img-3d3219d6-12" x="79.24" y="54.69"/>
          <use xlink:href="#img-3d3219d6-12" x="79.69" y="54.68"/>
          <use xlink:href="#img-3d3219d6-12" x="80.15" y="54.68"/>
          <use xlink:href="#img-3d3219d6-12" x="80.61" y="54.67"/>
          <use xlink:href="#img-3d3219d6-12" x="81.07" y="54.66"/>
          <use xlink:href="#img-3d3219d6-12" x="81.53" y="54.65"/>
          <use xlink:href="#img-3d3219d6-12" x="81.99" y="54.64"/>
          <use xlink:href="#img-3d3219d6-12" x="82.45" y="54.63"/>
          <use xlink:href="#img-3d3219d6-12" x="82.91" y="54.62"/>
          <use xlink:href="#img-3d3219d6-12" x="83.37" y="54.61"/>
          <use xlink:href="#img-3d3219d6-12" x="83.83" y="54.6"/>
          <use xlink:href="#img-3d3219d6-12" x="84.29" y="54.59"/>
          <use xlink:href="#img-3d3219d6-12" x="84.75" y="54.58"/>
          <use xlink:href="#img-3d3219d6-12" x="85.21" y="54.57"/>
          <use xlink:href="#img-3d3219d6-12" x="85.67" y="54.55"/>
          <use xlink:href="#img-3d3219d6-12" x="86.13" y="54.54"/>
          <use xlink:href="#img-3d3219d6-12" x="86.59" y="54.53"/>
          <use xlink:href="#img-3d3219d6-12" x="87.05" y="54.51"/>
          <use xlink:href="#img-3d3219d6-12" x="87.51" y="54.5"/>
          <use xlink:href="#img-3d3219d6-12" x="87.97" y="54.48"/>
          <use xlink:href="#img-3d3219d6-12" x="88.42" y="54.47"/>
          <use xlink:href="#img-3d3219d6-12" x="88.88" y="54.45"/>
          <use xlink:href="#img-3d3219d6-12" x="89.34" y="54.43"/>
          <use xlink:href="#img-3d3219d6-12" x="89.8" y="54.42"/>
          <use xlink:href="#img-3d3219d6-12" x="90.26" y="54.4"/>
          <use xlink:href="#img-3d3219d6-12" x="90.72" y="54.38"/>
          <use xlink:href="#img-3d3219d6-12" x="91.18" y="54.36"/>
          <use xlink:href="#img-3d3219d6-12" x="91.64" y="54.34"/>
          <use xlink:href="#img-3d3219d6-12" x="92.1" y="54.32"/>
          <use xlink:href="#img-3d3219d6-12" x="92.56" y="54.3"/>
          <use xlink:href="#img-3d3219d6-12" x="93.02" y="54.28"/>
          <use xlink:href="#img-3d3219d6-12" x="93.48" y="54.25"/>
          <use xlink:href="#img-3d3219d6-12" x="93.94" y="54.23"/>
          <use xlink:href="#img-3d3219d6-12" x="94.4" y="54.2"/>
          <use xlink:href="#img-3d3219d6-12" x="94.86" y="54.18"/>
          <use xlink:href="#img-3d3219d6-12" x="95.32" y="54.15"/>
          <use xlink:href="#img-3d3219d6-12" x="95.78" y="54.12"/>
          <use xlink:href="#img-3d3219d6-12" x="96.24" y="54.09"/>
          <use xlink:href="#img-3d3219d6-12" x="96.7" y="54.06"/>
          <use xlink:href="#img-3d3219d6-12" x="97.15" y="54.03"/>
          <use xlink:href="#img-3d3219d6-12" x="97.61" y="53.99"/>
          <use xlink:href="#img-3d3219d6-12" x="98.07" y="53.96"/>
          <use xlink:href="#img-3d3219d6-12" x="98.53" y="53.92"/>
          <use xlink:href="#img-3d3219d6-12" x="98.99" y="53.89"/>
          <use xlink:href="#img-3d3219d6-12" x="99.45" y="53.85"/>
          <use xlink:href="#img-3d3219d6-12" x="99.91" y="53.81"/>
          <use xlink:href="#img-3d3219d6-12" x="100.37" y="53.77"/>
          <use xlink:href="#img-3d3219d6-12" x="100.83" y="53.72"/>
          <use xlink:href="#img-3d3219d6-12" x="101.29" y="53.68"/>
          <use xlink:href="#img-3d3219d6-12" x="101.75" y="53.63"/>
          <use xlink:href="#img-3d3219d6-12" x="102.21" y="53.59"/>
          <use xlink:href="#img-3d3219d6-12" x="102.67" y="53.54"/>
          <use xlink:href="#img-3d3219d6-12" x="103.13" y="53.48"/>
          <use xlink:href="#img-3d3219d6-12" x="103.59" y="53.43"/>
          <use xlink:href="#img-3d3219d6-12" x="104.05" y="53.37"/>
          <use xlink:href="#img-3d3219d6-12" x="104.51" y="53.31"/>
          <use xlink:href="#img-3d3219d6-12" x="104.97" y="53.25"/>
          <use xlink:href="#img-3d3219d6-12" x="105.43" y="53.19"/>
          <use xlink:href="#img-3d3219d6-12" x="105.89" y="53.13"/>
          <use xlink:href="#img-3d3219d6-12" x="106.34" y="53.06"/>
          <use xlink:href="#img-3d3219d6-12" x="106.8" y="52.99"/>
          <use xlink:href="#img-3d3219d6-12" x="107.26" y="52.91"/>
          <use xlink:href="#img-3d3219d6-12" x="107.72" y="52.84"/>
          <use xlink:href="#img-3d3219d6-12" x="108.18" y="52.76"/>
          <use xlink:href="#img-3d3219d6-12" x="108.64" y="52.68"/>
          <use xlink:href="#img-3d3219d6-12" x="109.1" y="52.59"/>
          <use xlink:href="#img-3d3219d6-12" x="109.56" y="52.5"/>
          <use xlink:href="#img-3d3219d6-12" x="110.02" y="52.41"/>
          <use xlink:href="#img-3d3219d6-12" x="110.48" y="52.32"/>
          <use xlink:href="#img-3d3219d6-12" x="110.94" y="52.22"/>
          <use xlink:href="#img-3d3219d6-12" x="111.4" y="52.11"/>
          <use xlink:href="#img-3d3219d6-12" x="111.86" y="52.01"/>
          <use xlink:href="#img-3d3219d6-12" x="112.32" y="51.9"/>
          <use xlink:href="#img-3d3219d6-12" x="112.78" y="51.78"/>
          <use xlink:href="#img-3d3219d6-12" x="113.24" y="51.66"/>
          <use xlink:href="#img-3d3219d6-12" x="113.7" y="51.54"/>
          <use xlink:href="#img-3d3219d6-12" x="114.16" y="51.41"/>
          <use xlink:href="#img-3d3219d6-12" x="114.62" y="51.27"/>
          <use xlink:href="#img-3d3219d6-12" x="115.07" y="51.13"/>
          <use xlink:href="#img-3d3219d6-12" x="115.53" y="50.99"/>
          <use xlink:href="#img-3d3219d6-12" x="115.99" y="50.84"/>
          <use xlink:href="#img-3d3219d6-12" x="116.45" y="50.68"/>
          <use xlink:href="#img-3d3219d6-12" x="116.91" y="50.52"/>
          <use xlink:href="#img-3d3219d6-12" x="117.37" y="50.35"/>
          <use xlink:href="#img-3d3219d6-12" x="117.83" y="50.17"/>
          <use xlink:href="#img-3d3219d6-12" x="118.29" y="49.99"/>
          <use xlink:href="#img-3d3219d6-12" x="118.75" y="49.8"/>
          <use xlink:href="#img-3d3219d6-12" x="119.21" y="49.6"/>
          <use xlink:href="#img-3d3219d6-12" x="119.67" y="49.4"/>
          <use xlink:href="#img-3d3219d6-12" x="120.13" y="49.19"/>
          <use xlink:href="#img-3d3219d6-12" x="120.59" y="48.96"/>
          <use xlink:href="#img-3d3219d6-12" x="121.05" y="48.73"/>
          <use xlink:href="#img-3d3219d6-12" x="121.51" y="48.5"/>
          <use xlink:href="#img-3d3219d6-12" x="121.97" y="48.25"/>
          <use xlink:href="#img-3d3219d6-12" x="122.43" y="47.99"/>
          <use xlink:href="#img-3d3219d6-12" x="122.89" y="47.72"/>
          <use xlink:href="#img-3d3219d6-12" x="123.35" y="47.45"/>
          <use xlink:href="#img-3d3219d6-12" x="123.8" y="47.16"/>
          <use xlink:href="#img-3d3219d6-12" x="124.26" y="46.86"/>
          <use xlink:href="#img-3d3219d6-12" x="124.72" y="46.55"/>
          <use xlink:href="#img-3d3219d6-12" x="125.18" y="46.22"/>
          <use xlink:href="#img-3d3219d6-12" x="125.64" y="45.89"/>
          <use xlink:href="#img-3d3219d6-12" x="126.1" y="45.54"/>
          <use xlink:href="#img-3d3219d6-12" x="126.56" y="45.17"/>
          <use xlink:href="#img-3d3219d6-12" x="127.02" y="44.8"/>
          <use xlink:href="#img-3d3219d6-12" x="127.48" y="44.41"/>
          <use xlink:href="#img-3d3219d6-12" x="127.94" y="44"/>
          <use xlink:href="#img-3d3219d6-12" x="128.4" y="43.58"/>
          <use xlink:href="#img-3d3219d6-12" x="128.86" y="43.14"/>
          <use xlink:href="#img-3d3219d6-12" x="129.32" y="42.68"/>
          <use xlink:href="#img-3d3219d6-12" x="129.78" y="42.2"/>
          <use xlink:href="#img-3d3219d6-12" x="130.24" y="41.71"/>
          <use xlink:href="#img-3d3219d6-12" x="130.7" y="41.2"/>
          <use xlink:href="#img-3d3219d6-12" x="131.16" y="40.67"/>
          <use xlink:href="#img-3d3219d6-12" x="131.62" y="40.11"/>
          <use xlink:href="#img-3d3219d6-12" x="132.08" y="39.54"/>
          <use xlink:href="#img-3d3219d6-12" x="132.53" y="38.94"/>
          <use xlink:href="#img-3d3219d6-12" x="132.99" y="38.32"/>
          <use xlink:href="#img-3d3219d6-12" x="133.45" y="37.68"/>
          <use xlink:href="#img-3d3219d6-12" x="133.91" y="37.01"/>
          <use xlink:href="#img-3d3219d6-12" x="134.37" y="36.31"/>
          <use xlink:href="#img-3d3219d6-12" x="134.83" y="35.59"/>
          <use xlink:href="#img-3d3219d6-12" x="135.29" y="34.84"/>
          <use xlink:href="#img-3d3219d6-12" x="135.75" y="34.06"/>
          <use xlink:href="#img-3d3219d6-12" x="136.21" y="33.25"/>
          <use xlink:href="#img-3d3219d6-12" x="136.67" y="32.41"/>
          <use xlink:href="#img-3d3219d6-12" x="137.13" y="31.53"/>
          <use xlink:href="#img-3d3219d6-12" x="137.59" y="30.62"/>
          <use xlink:href="#img-3d3219d6-12" x="138.05" y="29.68"/>
          <use xlink:href="#img-3d3219d6-12" x="138.51" y="28.69"/>
          <use xlink:href="#img-3d3219d6-12" x="138.97" y="27.67"/>
          <use xlink:href="#img-3d3219d6-12" x="139.43" y="26.61"/>
          <use xlink:href="#img-3d3219d6-12" x="139.89" y="25.51"/>
          <use xlink:href="#img-3d3219d6-12" x="140.35" y="24.37"/>
          <use xlink:href="#img-3d3219d6-12" x="140.81" y="23.18"/>
          <use xlink:href="#img-3d3219d6-12" x="141.26" y="21.94"/>
          <use xlink:href="#img-3d3219d6-12" x="141.72" y="20.66"/>
          <use xlink:href="#img-3d3219d6-12" x="142.18" y="19.32"/>
          <use xlink:href="#img-3d3219d6-12" x="142.64" y="17.94"/>
          <use xlink:href="#img-3d3219d6-12" x="143.1" y="16.5"/>
          <use xlink:href="#img-3d3219d6-12" x="143.56" y="15"/>
          <use xlink:href="#img-3d3219d6-12" x="144.02" y="13.44"/>
          <use xlink:href="#img-3d3219d6-12" x="144.48" y="11.83"/>
          <use xlink:href="#img-3d3219d6-12" x="144.94" y="10.15"/>
          <use xlink:href="#img-3d3219d6-12" x="145.4" y="8.4"/>
        </g>
      </g>
    </g>
  </g>
</g>
  <g class="guide ylabels" font-size="2.82" font-family="'PT Sans Caption','Helvetica Neue','Helvetica',sans-serif" fill="#6C606B" id="img-3d3219d6-13">
    <text x="27.53" y="54.91" text-anchor="end" dy="0.35em">0</text>
    <text x="27.53" y="30.96" text-anchor="end" dy="0.35em">5.0×10⁴</text>
    <text x="27.53" y="7" text-anchor="end" dy="0.35em">1.0×10⁵</text>
  </g>
  <g font-size="3.88" font-family="'PT Sans','Helvetica Neue','Helvetica',sans-serif" fill="#564A55" stroke="#000000" stroke-opacity="0.000" id="img-3d3219d6-14">
    <text x="9.71" y="28.96" text-anchor="middle" dy="0.35em" transform="rotate(-90, 9.71, 30.96)">Relative L<tspan style="dominant-baseline:inherit" dy="0.6em" font-size="83%">2</tspan><tspan dy="-0.498000em"></tspan></text>
  </g>
</g>
<defs>
  <clipPath id="img-3d3219d6-4">
  <path d="M28.53,5 L 147.4 5 147.4 56.91 28.53 56.91" />
</clipPath>
  <g id="img-3d3219d6-12">
    <circle cx="0" cy="0" r="0.9"/>
  </g>
</defs>
</svg>
