<?xml version="1.0" encoding="UTF-8"?>
<svg xmlns="http://www.w3.org/2000/svg"
     xmlns:xlink="http://www.w3.org/1999/xlink"
     xmlns:gadfly="http://www.gadflyjl.org/ns"
     version="1.2"
     width="152.4mm" height="76.2mm" viewBox="0 0 152.4 76.2"
     stroke="none"
     fill="#000000"
     stroke-width="0.3"
     font-size="3.88"
>
<g class="plotroot xscalable yscalable" id="img-8d2891e6-1">
  <g font-size="3.88" font-family="'PT Sans','Helvetica Neue','Helvetica',sans-serif" fill="#564A55" stroke="#000000" stroke-opacity="0.000" id="img-8d2891e6-2">
    <text x="83.92" y="64.59" text-anchor="middle" dy="0.6em">Time (sec)</text>
  </g>
  <g class="guide xlabels" font-size="2.82" font-family="'PT Sans Caption','Helvetica Neue','Helvetica',sans-serif" fill="#6C606B" id="img-8d2891e6-3">
    <text x="22.44" y="57.91" text-anchor="middle" dy="0.6em">0</text>
    <text x="47.03" y="57.91" text-anchor="middle" dy="0.6em">5.0×10³</text>
    <text x="71.62" y="57.91" text-anchor="middle" dy="0.6em">1.0×10⁴</text>
    <text x="96.21" y="57.91" text-anchor="middle" dy="0.6em">1.5×10⁴</text>
    <text x="120.81" y="57.91" text-anchor="middle" dy="0.6em">2.0×10⁴</text>
    <text x="145.4" y="57.91" text-anchor="middle" dy="0.6em">2.5×10⁴</text>
  </g>
<g clip-path="url(#img-8d2891e6-4)">
  <g id="img-8d2891e6-5">
    <g pointer-events="visible" opacity="1" fill="#000000" fill-opacity="0.000" stroke="#000000" stroke-opacity="0.000" class="guide background" id="img-8d2891e6-6">
      <rect x="20.44" y="5" width="126.96" height="51.91"/>
    </g>
    <g class="guide ygridlines xfixed" stroke-dasharray="0.5,0.5" stroke-width="0.2" stroke="#D0D0E0" id="img-8d2891e6-7">
      <path fill="none" d="M20.44,54.91 L 147.4 54.91"/>
      <path fill="none" d="M20.44,38.94 L 147.4 38.94"/>
      <path fill="none" d="M20.44,22.97 L 147.4 22.97"/>
      <path fill="none" d="M20.44,7 L 147.4 7"/>
    </g>
    <g class="guide xgridlines yfixed" stroke-dasharray="0.5,0.5" stroke-width="0.2" stroke="#D0D0E0" id="img-8d2891e6-8">
      <path fill="none" d="M22.44,5 L 22.44 56.91"/>
      <path fill="none" d="M47.03,5 L 47.03 56.91"/>
      <path fill="none" d="M71.62,5 L 71.62 56.91"/>
      <path fill="none" d="M96.21,5 L 96.21 56.91"/>
      <path fill="none" d="M120.81,5 L 120.81 56.91"/>
      <path fill="none" d="M145.4,5 L 145.4 56.91"/>
    </g>
    <g class="plotpanel" id="img-8d2891e6-9">
      <g class="geometry" id="img-8d2891e6-10">
        <g class="color_RGBA{Float32}(0.0f0,0.74736935f0,1.0f0,1.0f0)" stroke="#FFFFFF" stroke-width="0.3" fill="#00BFFF" id="img-8d2891e6-11">
          <use xlink:href="#img-8d2891e6-12" x="22.44" y="50.62"/>
          <use xlink:href="#img-8d2891e6-12" x="22.93" y="18.19"/>
          <use xlink:href="#img-8d2891e6-12" x="23.42" y="22.08"/>
          <use xlink:href="#img-8d2891e6-12" x="23.91" y="23.84"/>
          <use xlink:href="#img-8d2891e6-12" x="24.4" y="23.95"/>
          <use xlink:href="#img-8d2891e6-12" x="24.9" y="22.87"/>
          <use xlink:href="#img-8d2891e6-12" x="25.39" y="22.21"/>
          <use xlink:href="#img-8d2891e6-12" x="25.88" y="22.86"/>
          <use xlink:href="#img-8d2891e6-12" x="26.37" y="23.4"/>
          <use xlink:href="#img-8d2891e6-12" x="26.86" y="23.31"/>
          <use xlink:href="#img-8d2891e6-12" x="27.36" y="22.87"/>
          <use xlink:href="#img-8d2891e6-12" x="27.85" y="22.58"/>
          <use xlink:href="#img-8d2891e6-12" x="28.34" y="22.98"/>
          <use xlink:href="#img-8d2891e6-12" x="28.83" y="23.28"/>
          <use xlink:href="#img-8d2891e6-12" x="29.32" y="23.11"/>
          <use xlink:href="#img-8d2891e6-12" x="29.82" y="22.87"/>
          <use xlink:href="#img-8d2891e6-12" x="30.31" y="52.46"/>
          <use xlink:href="#img-8d2891e6-12" x="30.8" y="50.34"/>
          <use xlink:href="#img-8d2891e6-12" x="31.29" y="51.54"/>
          <use xlink:href="#img-8d2891e6-12" x="31.78" y="51.66"/>
          <use xlink:href="#img-8d2891e6-12" x="32.27" y="52.27"/>
          <use xlink:href="#img-8d2891e6-12" x="32.77" y="52.3"/>
          <use xlink:href="#img-8d2891e6-12" x="33.26" y="52.1"/>
          <use xlink:href="#img-8d2891e6-12" x="33.75" y="50.44"/>
          <use xlink:href="#img-8d2891e6-12" x="34.24" y="52.46"/>
          <use xlink:href="#img-8d2891e6-12" x="34.73" y="51.48"/>
          <use xlink:href="#img-8d2891e6-12" x="35.23" y="51.67"/>
          <use xlink:href="#img-8d2891e6-12" x="35.72" y="51.84"/>
          <use xlink:href="#img-8d2891e6-12" x="36.21" y="52.35"/>
          <use xlink:href="#img-8d2891e6-12" x="36.7" y="50.96"/>
          <use xlink:href="#img-8d2891e6-12" x="37.19" y="49.93"/>
          <use xlink:href="#img-8d2891e6-12" x="37.68" y="52.01"/>
          <use xlink:href="#img-8d2891e6-12" x="38.18" y="51.26"/>
          <use xlink:href="#img-8d2891e6-12" x="38.67" y="51"/>
          <use xlink:href="#img-8d2891e6-12" x="39.16" y="51.54"/>
          <use xlink:href="#img-8d2891e6-12" x="39.65" y="50.61"/>
          <use xlink:href="#img-8d2891e6-12" x="40.14" y="49.72"/>
          <use xlink:href="#img-8d2891e6-12" x="40.64" y="51.34"/>
          <use xlink:href="#img-8d2891e6-12" x="41.13" y="50.59"/>
          <use xlink:href="#img-8d2891e6-12" x="41.62" y="50.55"/>
          <use xlink:href="#img-8d2891e6-12" x="42.11" y="51.48"/>
          <use xlink:href="#img-8d2891e6-12" x="42.6" y="50.5"/>
          <use xlink:href="#img-8d2891e6-12" x="43.1" y="49.27"/>
          <use xlink:href="#img-8d2891e6-12" x="43.59" y="49.93"/>
          <use xlink:href="#img-8d2891e6-12" x="44.08" y="51.25"/>
          <use xlink:href="#img-8d2891e6-12" x="44.57" y="50.55"/>
          <use xlink:href="#img-8d2891e6-12" x="45.06" y="49.06"/>
          <use xlink:href="#img-8d2891e6-12" x="45.55" y="51.76"/>
          <use xlink:href="#img-8d2891e6-12" x="46.05" y="51.54"/>
          <use xlink:href="#img-8d2891e6-12" x="46.54" y="50.37"/>
          <use xlink:href="#img-8d2891e6-12" x="47.03" y="50.66"/>
          <use xlink:href="#img-8d2891e6-12" x="47.52" y="51.19"/>
          <use xlink:href="#img-8d2891e6-12" x="48.01" y="49.88"/>
          <use xlink:href="#img-8d2891e6-12" x="48.51" y="48.95"/>
          <use xlink:href="#img-8d2891e6-12" x="49" y="50.12"/>
          <use xlink:href="#img-8d2891e6-12" x="49.49" y="51.2"/>
          <use xlink:href="#img-8d2891e6-12" x="49.98" y="50.53"/>
          <use xlink:href="#img-8d2891e6-12" x="50.47" y="49.34"/>
          <use xlink:href="#img-8d2891e6-12" x="50.96" y="48.52"/>
          <use xlink:href="#img-8d2891e6-12" x="51.46" y="48.37"/>
          <use xlink:href="#img-8d2891e6-12" x="51.95" y="51.38"/>
          <use xlink:href="#img-8d2891e6-12" x="52.44" y="50.04"/>
          <use xlink:href="#img-8d2891e6-12" x="52.93" y="49.88"/>
          <use xlink:href="#img-8d2891e6-12" x="53.42" y="51.55"/>
          <use xlink:href="#img-8d2891e6-12" x="53.92" y="50.7"/>
          <use xlink:href="#img-8d2891e6-12" x="54.41" y="49.86"/>
          <use xlink:href="#img-8d2891e6-12" x="54.9" y="48.74"/>
          <use xlink:href="#img-8d2891e6-12" x="55.39" y="48.5"/>
          <use xlink:href="#img-8d2891e6-12" x="55.88" y="51.36"/>
          <use xlink:href="#img-8d2891e6-12" x="56.38" y="50.59"/>
          <use xlink:href="#img-8d2891e6-12" x="56.87" y="48.9"/>
          <use xlink:href="#img-8d2891e6-12" x="57.36" y="48.39"/>
          <use xlink:href="#img-8d2891e6-12" x="57.85" y="47.87"/>
          <use xlink:href="#img-8d2891e6-12" x="58.34" y="48.94"/>
          <use xlink:href="#img-8d2891e6-12" x="58.83" y="50.84"/>
          <use xlink:href="#img-8d2891e6-12" x="59.33" y="50.8"/>
          <use xlink:href="#img-8d2891e6-12" x="59.82" y="50.1"/>
          <use xlink:href="#img-8d2891e6-12" x="60.31" y="50.72"/>
          <use xlink:href="#img-8d2891e6-12" x="60.8" y="50.83"/>
          <use xlink:href="#img-8d2891e6-12" x="61.29" y="49"/>
          <use xlink:href="#img-8d2891e6-12" x="61.79" y="49.09"/>
          <use xlink:href="#img-8d2891e6-12" x="62.28" y="51.07"/>
          <use xlink:href="#img-8d2891e6-12" x="62.77" y="50.71"/>
          <use xlink:href="#img-8d2891e6-12" x="63.26" y="49.55"/>
          <use xlink:href="#img-8d2891e6-12" x="63.75" y="51.55"/>
          <use xlink:href="#img-8d2891e6-12" x="64.24" y="50.56"/>
          <use xlink:href="#img-8d2891e6-12" x="64.74" y="49.69"/>
          <use xlink:href="#img-8d2891e6-12" x="65.23" y="50.22"/>
          <use xlink:href="#img-8d2891e6-12" x="65.72" y="50.9"/>
          <use xlink:href="#img-8d2891e6-12" x="66.21" y="50.57"/>
          <use xlink:href="#img-8d2891e6-12" x="66.7" y="49.6"/>
          <use xlink:href="#img-8d2891e6-12" x="67.2" y="51.12"/>
          <use xlink:href="#img-8d2891e6-12" x="67.69" y="50.79"/>
          <use xlink:href="#img-8d2891e6-12" x="68.18" y="50.22"/>
          <use xlink:href="#img-8d2891e6-12" x="68.67" y="49.51"/>
          <use xlink:href="#img-8d2891e6-12" x="69.16" y="49.26"/>
          <use xlink:href="#img-8d2891e6-12" x="69.66" y="51.24"/>
          <use xlink:href="#img-8d2891e6-12" x="70.15" y="50.45"/>
          <use xlink:href="#img-8d2891e6-12" x="70.64" y="49.64"/>
          <use xlink:href="#img-8d2891e6-12" x="71.13" y="50.83"/>
          <use xlink:href="#img-8d2891e6-12" x="71.62" y="50.59"/>
          <use xlink:href="#img-8d2891e6-12" x="72.11" y="49.87"/>
          <use xlink:href="#img-8d2891e6-12" x="72.61" y="49.63"/>
          <use xlink:href="#img-8d2891e6-12" x="73.1" y="49.97"/>
          <use xlink:href="#img-8d2891e6-12" x="73.59" y="50.92"/>
          <use xlink:href="#img-8d2891e6-12" x="74.08" y="50.04"/>
          <use xlink:href="#img-8d2891e6-12" x="74.57" y="50.06"/>
          <use xlink:href="#img-8d2891e6-12" x="75.07" y="50.56"/>
          <use xlink:href="#img-8d2891e6-12" x="75.56" y="50.13"/>
          <use xlink:href="#img-8d2891e6-12" x="76.05" y="50.84"/>
          <use xlink:href="#img-8d2891e6-12" x="76.54" y="49.61"/>
          <use xlink:href="#img-8d2891e6-12" x="77.03" y="49.26"/>
          <use xlink:href="#img-8d2891e6-12" x="77.52" y="50.65"/>
          <use xlink:href="#img-8d2891e6-12" x="78.02" y="50.83"/>
          <use xlink:href="#img-8d2891e6-12" x="78.51" y="49.6"/>
          <use xlink:href="#img-8d2891e6-12" x="79" y="49.44"/>
          <use xlink:href="#img-8d2891e6-12" x="79.49" y="50.48"/>
          <use xlink:href="#img-8d2891e6-12" x="79.98" y="50.29"/>
          <use xlink:href="#img-8d2891e6-12" x="80.48" y="48.95"/>
          <use xlink:href="#img-8d2891e6-12" x="80.97" y="48.46"/>
          <use xlink:href="#img-8d2891e6-12" x="81.46" y="51.01"/>
          <use xlink:href="#img-8d2891e6-12" x="81.95" y="49.85"/>
          <use xlink:href="#img-8d2891e6-12" x="82.44" y="49.3"/>
          <use xlink:href="#img-8d2891e6-12" x="82.94" y="50.7"/>
          <use xlink:href="#img-8d2891e6-12" x="83.43" y="50.67"/>
          <use xlink:href="#img-8d2891e6-12" x="83.92" y="49.25"/>
          <use xlink:href="#img-8d2891e6-12" x="84.41" y="49.4"/>
          <use xlink:href="#img-8d2891e6-12" x="84.9" y="50.81"/>
          <use xlink:href="#img-8d2891e6-12" x="85.39" y="50.93"/>
          <use xlink:href="#img-8d2891e6-12" x="85.89" y="50.28"/>
          <use xlink:href="#img-8d2891e6-12" x="86.38" y="49.4"/>
          <use xlink:href="#img-8d2891e6-12" x="86.87" y="50.53"/>
          <use xlink:href="#img-8d2891e6-12" x="87.36" y="50.15"/>
          <use xlink:href="#img-8d2891e6-12" x="87.85" y="50.6"/>
          <use xlink:href="#img-8d2891e6-12" x="88.35" y="49.97"/>
          <use xlink:href="#img-8d2891e6-12" x="88.84" y="50.98"/>
          <use xlink:href="#img-8d2891e6-12" x="89.33" y="50.91"/>
          <use xlink:href="#img-8d2891e6-12" x="89.82" y="49.48"/>
          <use xlink:href="#img-8d2891e6-12" x="90.31" y="50.56"/>
          <use xlink:href="#img-8d2891e6-12" x="90.8" y="51.04"/>
          <use xlink:href="#img-8d2891e6-12" x="91.3" y="49.88"/>
          <use xlink:href="#img-8d2891e6-12" x="91.79" y="50.58"/>
          <use xlink:href="#img-8d2891e6-12" x="92.28" y="50.84"/>
          <use xlink:href="#img-8d2891e6-12" x="92.77" y="49.94"/>
          <use xlink:href="#img-8d2891e6-12" x="93.26" y="49.51"/>
          <use xlink:href="#img-8d2891e6-12" x="93.76" y="50.94"/>
          <use xlink:href="#img-8d2891e6-12" x="94.25" y="50.62"/>
          <use xlink:href="#img-8d2891e6-12" x="94.74" y="49.22"/>
          <use xlink:href="#img-8d2891e6-12" x="95.23" y="50.2"/>
          <use xlink:href="#img-8d2891e6-12" x="95.72" y="51.42"/>
          <use xlink:href="#img-8d2891e6-12" x="96.21" y="49.85"/>
          <use xlink:href="#img-8d2891e6-12" x="96.71" y="49.99"/>
          <use xlink:href="#img-8d2891e6-12" x="97.2" y="50.95"/>
          <use xlink:href="#img-8d2891e6-12" x="97.69" y="50.87"/>
          <use xlink:href="#img-8d2891e6-12" x="98.18" y="49.11"/>
          <use xlink:href="#img-8d2891e6-12" x="98.67" y="48.8"/>
          <use xlink:href="#img-8d2891e6-12" x="99.17" y="50.46"/>
          <use xlink:href="#img-8d2891e6-12" x="99.66" y="50.96"/>
          <use xlink:href="#img-8d2891e6-12" x="100.15" y="48.71"/>
          <use xlink:href="#img-8d2891e6-12" x="100.64" y="48.67"/>
          <use xlink:href="#img-8d2891e6-12" x="101.13" y="49.26"/>
          <use xlink:href="#img-8d2891e6-12" x="101.63" y="50.71"/>
          <use xlink:href="#img-8d2891e6-12" x="102.12" y="50.89"/>
          <use xlink:href="#img-8d2891e6-12" x="102.61" y="49.71"/>
          <use xlink:href="#img-8d2891e6-12" x="103.1" y="48.99"/>
          <use xlink:href="#img-8d2891e6-12" x="103.59" y="50.31"/>
          <use xlink:href="#img-8d2891e6-12" x="104.08" y="51"/>
          <use xlink:href="#img-8d2891e6-12" x="104.58" y="49.85"/>
          <use xlink:href="#img-8d2891e6-12" x="105.07" y="49.59"/>
          <use xlink:href="#img-8d2891e6-12" x="105.56" y="50.44"/>
          <use xlink:href="#img-8d2891e6-12" x="106.05" y="49.59"/>
          <use xlink:href="#img-8d2891e6-12" x="106.54" y="49.01"/>
          <use xlink:href="#img-8d2891e6-12" x="107.04" y="50.83"/>
          <use xlink:href="#img-8d2891e6-12" x="107.53" y="50.44"/>
          <use xlink:href="#img-8d2891e6-12" x="108.02" y="49.82"/>
          <use xlink:href="#img-8d2891e6-12" x="108.51" y="50.73"/>
          <use xlink:href="#img-8d2891e6-12" x="109" y="50.17"/>
          <use xlink:href="#img-8d2891e6-12" x="109.49" y="51.18"/>
          <use xlink:href="#img-8d2891e6-12" x="109.99" y="50.7"/>
          <use xlink:href="#img-8d2891e6-12" x="110.48" y="50.08"/>
          <use xlink:href="#img-8d2891e6-12" x="110.97" y="49.31"/>
          <use xlink:href="#img-8d2891e6-12" x="111.46" y="50.83"/>
          <use xlink:href="#img-8d2891e6-12" x="111.95" y="50.6"/>
          <use xlink:href="#img-8d2891e6-12" x="112.45" y="49.24"/>
          <use xlink:href="#img-8d2891e6-12" x="112.94" y="48.21"/>
          <use xlink:href="#img-8d2891e6-12" x="113.43" y="50.19"/>
          <use xlink:href="#img-8d2891e6-12" x="113.92" y="50.67"/>
          <use xlink:href="#img-8d2891e6-12" x="114.41" y="49.46"/>
          <use xlink:href="#img-8d2891e6-12" x="114.91" y="49.28"/>
          <use xlink:href="#img-8d2891e6-12" x="115.4" y="50.69"/>
          <use xlink:href="#img-8d2891e6-12" x="115.89" y="50.26"/>
          <use xlink:href="#img-8d2891e6-12" x="116.38" y="50.32"/>
          <use xlink:href="#img-8d2891e6-12" x="116.87" y="51.17"/>
          <use xlink:href="#img-8d2891e6-12" x="117.36" y="50.99"/>
          <use xlink:href="#img-8d2891e6-12" x="117.86" y="50.32"/>
          <use xlink:href="#img-8d2891e6-12" x="118.35" y="49.5"/>
          <use xlink:href="#img-8d2891e6-12" x="118.84" y="49.76"/>
          <use xlink:href="#img-8d2891e6-12" x="119.33" y="49.24"/>
          <use xlink:href="#img-8d2891e6-12" x="119.82" y="48.43"/>
          <use xlink:href="#img-8d2891e6-12" x="120.32" y="50.3"/>
          <use xlink:href="#img-8d2891e6-12" x="120.81" y="51.21"/>
          <use xlink:href="#img-8d2891e6-12" x="121.3" y="49.5"/>
          <use xlink:href="#img-8d2891e6-12" x="121.79" y="49.6"/>
          <use xlink:href="#img-8d2891e6-12" x="122.28" y="51.35"/>
          <use xlink:href="#img-8d2891e6-12" x="122.77" y="49.79"/>
          <use xlink:href="#img-8d2891e6-12" x="123.27" y="51.24"/>
          <use xlink:href="#img-8d2891e6-12" x="123.76" y="50.87"/>
          <use xlink:href="#img-8d2891e6-12" x="124.25" y="48.84"/>
          <use xlink:href="#img-8d2891e6-12" x="124.74" y="51.38"/>
          <use xlink:href="#img-8d2891e6-12" x="125.23" y="50.5"/>
          <use xlink:href="#img-8d2891e6-12" x="125.73" y="48.93"/>
          <use xlink:href="#img-8d2891e6-12" x="126.22" y="48.89"/>
          <use xlink:href="#img-8d2891e6-12" x="126.71" y="51.42"/>
          <use xlink:href="#img-8d2891e6-12" x="127.2" y="50.44"/>
          <use xlink:href="#img-8d2891e6-12" x="127.69" y="49.63"/>
          <use xlink:href="#img-8d2891e6-12" x="128.19" y="49.22"/>
          <use xlink:href="#img-8d2891e6-12" x="128.68" y="50.64"/>
          <use xlink:href="#img-8d2891e6-12" x="129.17" y="49.81"/>
          <use xlink:href="#img-8d2891e6-12" x="129.66" y="48.66"/>
          <use xlink:href="#img-8d2891e6-12" x="130.15" y="50.23"/>
          <use xlink:href="#img-8d2891e6-12" x="130.64" y="51.4"/>
          <use xlink:href="#img-8d2891e6-12" x="131.14" y="51.06"/>
          <use xlink:href="#img-8d2891e6-12" x="131.63" y="49.76"/>
          <use xlink:href="#img-8d2891e6-12" x="132.12" y="49.98"/>
          <use xlink:href="#img-8d2891e6-12" x="132.61" y="51.43"/>
          <use xlink:href="#img-8d2891e6-12" x="133.1" y="50.63"/>
          <use xlink:href="#img-8d2891e6-12" x="133.6" y="50.72"/>
          <use xlink:href="#img-8d2891e6-12" x="134.09" y="50.18"/>
          <use xlink:href="#img-8d2891e6-12" x="134.58" y="49.49"/>
          <use xlink:href="#img-8d2891e6-12" x="135.07" y="49.49"/>
          <use xlink:href="#img-8d2891e6-12" x="135.56" y="48.95"/>
          <use xlink:href="#img-8d2891e6-12" x="136.05" y="50.91"/>
          <use xlink:href="#img-8d2891e6-12" x="136.55" y="49.83"/>
          <use xlink:href="#img-8d2891e6-12" x="137.04" y="50.83"/>
          <use xlink:href="#img-8d2891e6-12" x="137.53" y="49.77"/>
          <use xlink:href="#img-8d2891e6-12" x="138.02" y="51.29"/>
          <use xlink:href="#img-8d2891e6-12" x="138.51" y="49.98"/>
          <use xlink:href="#img-8d2891e6-12" x="139.01" y="49.32"/>
          <use xlink:href="#img-8d2891e6-12" x="139.5" y="50.65"/>
          <use xlink:href="#img-8d2891e6-12" x="139.99" y="50.2"/>
          <use xlink:href="#img-8d2891e6-12" x="140.48" y="49.89"/>
          <use xlink:href="#img-8d2891e6-12" x="140.97" y="50.27"/>
          <use xlink:href="#img-8d2891e6-12" x="141.47" y="49.23"/>
          <use xlink:href="#img-8d2891e6-12" x="141.96" y="50.49"/>
          <use xlink:href="#img-8d2891e6-12" x="142.45" y="50.98"/>
          <use xlink:href="#img-8d2891e6-12" x="142.94" y="50.3"/>
          <use xlink:href="#img-8d2891e6-12" x="143.43" y="48.83"/>
          <use xlink:href="#img-8d2891e6-12" x="143.92" y="50.83"/>
          <use xlink:href="#img-8d2891e6-12" x="144.42" y="50.21"/>
          <use xlink:href="#img-8d2891e6-12" x="144.91" y="50.1"/>
          <use xlink:href="#img-8d2891e6-12" x="145.4" y="50.62"/>
        </g>
      </g>
    </g>
  </g>
</g>
  <g class="guide ylabels" font-size="2.82" font-family="'PT Sans Caption','Helvetica Neue','Helvetica',sans-serif" fill="#6C606B" id="img-8d2891e6-13">
    <text x="19.44" y="54.91" text-anchor="end" dy="0.35em">0.0</text>
    <text x="19.44" y="38.94" text-anchor="end" dy="0.35em">0.5</text>
    <text x="19.44" y="22.97" text-anchor="end" dy="0.35em">1.0</text>
    <text x="19.44" y="7" text-anchor="end" dy="0.35em">1.5</text>
  </g>
  <g font-size="3.88" font-family="'PT Sans','Helvetica Neue','Helvetica',sans-serif" fill="#564A55" stroke="#000000" stroke-opacity="0.000" id="img-8d2891e6-14">
    <text x="9.71" y="28.96" text-anchor="middle" dy="0.35em" transform="rotate(-90, 9.71, 30.96)">Relative L<tspan style="dominant-baseline:inherit" dy="0.6em" font-size="83%">2</tspan><tspan dy="-0.498000em"></tspan></text>
  </g>
</g>
<defs>
  <clipPath id="img-8d2891e6-4">
  <path d="M20.44,5 L 147.4 5 147.4 56.91 20.44 56.91" />
</clipPath>
  <g id="img-8d2891e6-12">
    <circle cx="0" cy="0" r="0.9"/>
  </g>
</defs>
</svg>
