<?xml version="1.0" encoding="UTF-8"?>
<svg xmlns="http://www.w3.org/2000/svg"
     xmlns:xlink="http://www.w3.org/1999/xlink"
     xmlns:gadfly="http://www.gadflyjl.org/ns"
     version="1.2"
     width="152.4mm" height="76.2mm" viewBox="0 0 152.4 76.2"
     stroke="none"
     fill="#000000"
     stroke-width="0.3"
     font-size="3.88"
>
<g class="plotroot xscalable yscalable" id="img-c0229d93-1">
  <g font-size="3.88" font-family="'PT Sans','Helvetica Neue','Helvetica',sans-serif" fill="#564A55" stroke="#000000" stroke-opacity="0.000" id="img-c0229d93-2">
    <text x="82.75" y="64.59" text-anchor="middle" dy="0.6em">Time (sec)</text>
  </g>
  <g class="guide xlabels" font-size="2.82" font-family="'PT Sans Caption','Helvetica Neue','Helvetica',sans-serif" fill="#6C606B" id="img-c0229d93-3">
    <text x="20.09" y="57.91" text-anchor="middle" dy="0.6em">0</text>
    <text x="45.15" y="57.91" text-anchor="middle" dy="0.6em">5.0×10³</text>
    <text x="70.21" y="57.91" text-anchor="middle" dy="0.6em">1.0×10⁴</text>
    <text x="95.28" y="57.91" text-anchor="middle" dy="0.6em">1.5×10⁴</text>
    <text x="120.34" y="57.91" text-anchor="middle" dy="0.6em">2.0×10⁴</text>
    <text x="145.4" y="57.91" text-anchor="middle" dy="0.6em">2.5×10⁴</text>
  </g>
<g clip-path="url(#img-c0229d93-4)">
  <g id="img-c0229d93-5">
    <g pointer-events="visible" opacity="1" fill="#000000" fill-opacity="0.000" stroke="#000000" stroke-opacity="0.000" class="guide background" id="img-c0229d93-6">
      <rect x="18.09" y="5" width="129.31" height="51.91"/>
    </g>
    <g class="guide ygridlines xfixed" stroke-dasharray="0.5,0.5" stroke-width="0.2" stroke="#D0D0E0" id="img-c0229d93-7">
      <path fill="none" d="M18.09,54.91 L 147.4 54.91"/>
      <path fill="none" d="M18.09,38.94 L 147.4 38.94"/>
      <path fill="none" d="M18.09,22.97 L 147.4 22.97"/>
      <path fill="none" d="M18.09,7 L 147.4 7"/>
    </g>
    <g class="guide xgridlines yfixed" stroke-dasharray="0.5,0.5" stroke-width="0.2" stroke="#D0D0E0" id="img-c0229d93-8">
      <path fill="none" d="M20.09,5 L 20.09 56.91"/>
      <path fill="none" d="M45.15,5 L 45.15 56.91"/>
      <path fill="none" d="M70.21,5 L 70.21 56.91"/>
      <path fill="none" d="M95.28,5 L 95.28 56.91"/>
      <path fill="none" d="M120.34,5 L 120.34 56.91"/>
      <path fill="none" d="M145.4,5 L 145.4 56.91"/>
    </g>
    <g class="plotpanel" id="img-c0229d93-9">
      <g class="geometry" id="img-c0229d93-10">
        <g class="color_RGBA{Float32}(0.0f0,0.74736935f0,1.0f0,1.0f0)" stroke="#FFFFFF" stroke-width="0.3" fill="#00BFFF" id="img-c0229d93-11">
          <use xlink:href="#img-c0229d93-12" x="20.09" y="32.24"/>
          <use xlink:href="#img-c0229d93-12" x="20.59" y="21.38"/>
          <use xlink:href="#img-c0229d93-12" x="21.09" y="20.95"/>
          <use xlink:href="#img-c0229d93-12" x="21.59" y="22.36"/>
          <use xlink:href="#img-c0229d93-12" x="22.1" y="23.76"/>
          <use xlink:href="#img-c0229d93-12" x="22.6" y="23.49"/>
          <use xlink:href="#img-c0229d93-12" x="23.1" y="21.78"/>
          <use xlink:href="#img-c0229d93-12" x="23.6" y="23.21"/>
          <use xlink:href="#img-c0229d93-12" x="24.1" y="23.62"/>
          <use xlink:href="#img-c0229d93-12" x="24.6" y="22.12"/>
          <use xlink:href="#img-c0229d93-12" x="25.1" y="21.55"/>
          <use xlink:href="#img-c0229d93-12" x="25.6" y="18.33"/>
          <use xlink:href="#img-c0229d93-12" x="26.11" y="14.94"/>
          <use xlink:href="#img-c0229d93-12" x="26.61" y="13.06"/>
          <use xlink:href="#img-c0229d93-12" x="27.11" y="11.42"/>
          <use xlink:href="#img-c0229d93-12" x="27.61" y="25.5"/>
          <use xlink:href="#img-c0229d93-12" x="28.11" y="34.26"/>
          <use xlink:href="#img-c0229d93-12" x="28.61" y="21.42"/>
          <use xlink:href="#img-c0229d93-12" x="29.11" y="20.29"/>
          <use xlink:href="#img-c0229d93-12" x="29.61" y="25.98"/>
          <use xlink:href="#img-c0229d93-12" x="30.12" y="25.33"/>
          <use xlink:href="#img-c0229d93-12" x="30.62" y="24.5"/>
          <use xlink:href="#img-c0229d93-12" x="31.12" y="24.12"/>
          <use xlink:href="#img-c0229d93-12" x="31.62" y="28.21"/>
          <use xlink:href="#img-c0229d93-12" x="32.12" y="20.29"/>
          <use xlink:href="#img-c0229d93-12" x="32.62" y="23.2"/>
          <use xlink:href="#img-c0229d93-12" x="33.12" y="19.74"/>
          <use xlink:href="#img-c0229d93-12" x="33.62" y="23.75"/>
          <use xlink:href="#img-c0229d93-12" x="34.13" y="32.82"/>
          <use xlink:href="#img-c0229d93-12" x="34.63" y="27.99"/>
          <use xlink:href="#img-c0229d93-12" x="35.13" y="25.33"/>
          <use xlink:href="#img-c0229d93-12" x="35.63" y="32.6"/>
          <use xlink:href="#img-c0229d93-12" x="36.13" y="29.22"/>
          <use xlink:href="#img-c0229d93-12" x="36.63" y="21.94"/>
          <use xlink:href="#img-c0229d93-12" x="37.13" y="30.45"/>
          <use xlink:href="#img-c0229d93-12" x="37.63" y="24.05"/>
          <use xlink:href="#img-c0229d93-12" x="38.14" y="26.46"/>
          <use xlink:href="#img-c0229d93-12" x="38.64" y="26.63"/>
          <use xlink:href="#img-c0229d93-12" x="39.14" y="28.91"/>
          <use xlink:href="#img-c0229d93-12" x="39.64" y="23.79"/>
          <use xlink:href="#img-c0229d93-12" x="40.14" y="30.3"/>
          <use xlink:href="#img-c0229d93-12" x="40.64" y="23.54"/>
          <use xlink:href="#img-c0229d93-12" x="41.14" y="31.06"/>
          <use xlink:href="#img-c0229d93-12" x="41.64" y="29.26"/>
          <use xlink:href="#img-c0229d93-12" x="42.15" y="28.82"/>
          <use xlink:href="#img-c0229d93-12" x="42.65" y="26.73"/>
          <use xlink:href="#img-c0229d93-12" x="43.15" y="28.34"/>
          <use xlink:href="#img-c0229d93-12" x="43.65" y="28.23"/>
          <use xlink:href="#img-c0229d93-12" x="44.15" y="28.57"/>
          <use xlink:href="#img-c0229d93-12" x="44.65" y="22.82"/>
          <use xlink:href="#img-c0229d93-12" x="45.15" y="24.47"/>
          <use xlink:href="#img-c0229d93-12" x="45.65" y="24.24"/>
          <use xlink:href="#img-c0229d93-12" x="46.16" y="27.87"/>
          <use xlink:href="#img-c0229d93-12" x="46.66" y="32.27"/>
          <use xlink:href="#img-c0229d93-12" x="47.16" y="25.15"/>
          <use xlink:href="#img-c0229d93-12" x="47.66" y="27.61"/>
          <use xlink:href="#img-c0229d93-12" x="48.16" y="28.18"/>
          <use xlink:href="#img-c0229d93-12" x="48.66" y="22.92"/>
          <use xlink:href="#img-c0229d93-12" x="49.16" y="30.73"/>
          <use xlink:href="#img-c0229d93-12" x="49.66" y="26.77"/>
          <use xlink:href="#img-c0229d93-12" x="50.17" y="29.83"/>
          <use xlink:href="#img-c0229d93-12" x="50.67" y="19.55"/>
          <use xlink:href="#img-c0229d93-12" x="51.17" y="20.92"/>
          <use xlink:href="#img-c0229d93-12" x="51.67" y="31.36"/>
          <use xlink:href="#img-c0229d93-12" x="52.17" y="22.34"/>
          <use xlink:href="#img-c0229d93-12" x="52.67" y="25.11"/>
          <use xlink:href="#img-c0229d93-12" x="53.17" y="28.12"/>
          <use xlink:href="#img-c0229d93-12" x="53.67" y="22.48"/>
          <use xlink:href="#img-c0229d93-12" x="54.17" y="35.46"/>
          <use xlink:href="#img-c0229d93-12" x="54.68" y="24.41"/>
          <use xlink:href="#img-c0229d93-12" x="55.18" y="25.31"/>
          <use xlink:href="#img-c0229d93-12" x="55.68" y="22.01"/>
          <use xlink:href="#img-c0229d93-12" x="56.18" y="23.2"/>
          <use xlink:href="#img-c0229d93-12" x="56.68" y="19.37"/>
          <use xlink:href="#img-c0229d93-12" x="57.18" y="30.9"/>
          <use xlink:href="#img-c0229d93-12" x="57.68" y="25.17"/>
          <use xlink:href="#img-c0229d93-12" x="58.18" y="23.84"/>
          <use xlink:href="#img-c0229d93-12" x="58.69" y="28.62"/>
          <use xlink:href="#img-c0229d93-12" x="59.19" y="28.83"/>
          <use xlink:href="#img-c0229d93-12" x="59.69" y="23.79"/>
          <use xlink:href="#img-c0229d93-12" x="60.19" y="25"/>
          <use xlink:href="#img-c0229d93-12" x="60.69" y="29.89"/>
          <use xlink:href="#img-c0229d93-12" x="61.19" y="31.91"/>
          <use xlink:href="#img-c0229d93-12" x="61.69" y="20.69"/>
          <use xlink:href="#img-c0229d93-12" x="62.19" y="32.65"/>
          <use xlink:href="#img-c0229d93-12" x="62.7" y="32.06"/>
          <use xlink:href="#img-c0229d93-12" x="63.2" y="14.27"/>
          <use xlink:href="#img-c0229d93-12" x="63.7" y="19.88"/>
          <use xlink:href="#img-c0229d93-12" x="64.2" y="30.57"/>
          <use xlink:href="#img-c0229d93-12" x="64.7" y="28.86"/>
          <use xlink:href="#img-c0229d93-12" x="65.2" y="23.14"/>
          <use xlink:href="#img-c0229d93-12" x="65.7" y="33.73"/>
          <use xlink:href="#img-c0229d93-12" x="66.2" y="25.71"/>
          <use xlink:href="#img-c0229d93-12" x="66.71" y="28.16"/>
          <use xlink:href="#img-c0229d93-12" x="67.21" y="28.07"/>
          <use xlink:href="#img-c0229d93-12" x="67.71" y="24.17"/>
          <use xlink:href="#img-c0229d93-12" x="68.21" y="28.13"/>
          <use xlink:href="#img-c0229d93-12" x="68.71" y="31.06"/>
          <use xlink:href="#img-c0229d93-12" x="69.21" y="27.37"/>
          <use xlink:href="#img-c0229d93-12" x="69.71" y="27.37"/>
          <use xlink:href="#img-c0229d93-12" x="70.21" y="27.06"/>
          <use xlink:href="#img-c0229d93-12" x="70.72" y="27.75"/>
          <use xlink:href="#img-c0229d93-12" x="71.22" y="21.98"/>
          <use xlink:href="#img-c0229d93-12" x="71.72" y="27.23"/>
          <use xlink:href="#img-c0229d93-12" x="72.22" y="29.44"/>
          <use xlink:href="#img-c0229d93-12" x="72.72" y="26.96"/>
          <use xlink:href="#img-c0229d93-12" x="73.22" y="25.03"/>
          <use xlink:href="#img-c0229d93-12" x="73.72" y="24.77"/>
          <use xlink:href="#img-c0229d93-12" x="74.22" y="25.64"/>
          <use xlink:href="#img-c0229d93-12" x="74.73" y="31.67"/>
          <use xlink:href="#img-c0229d93-12" x="75.23" y="21.19"/>
          <use xlink:href="#img-c0229d93-12" x="75.73" y="24.64"/>
          <use xlink:href="#img-c0229d93-12" x="76.23" y="23.09"/>
          <use xlink:href="#img-c0229d93-12" x="76.73" y="30.37"/>
          <use xlink:href="#img-c0229d93-12" x="77.23" y="21.29"/>
          <use xlink:href="#img-c0229d93-12" x="77.73" y="21.89"/>
          <use xlink:href="#img-c0229d93-12" x="78.23" y="24.72"/>
          <use xlink:href="#img-c0229d93-12" x="78.74" y="24.02"/>
          <use xlink:href="#img-c0229d93-12" x="79.24" y="24.11"/>
          <use xlink:href="#img-c0229d93-12" x="79.74" y="26.04"/>
          <use xlink:href="#img-c0229d93-12" x="80.24" y="25.76"/>
          <use xlink:href="#img-c0229d93-12" x="80.74" y="23.08"/>
          <use xlink:href="#img-c0229d93-12" x="81.24" y="23.63"/>
          <use xlink:href="#img-c0229d93-12" x="81.74" y="26.4"/>
          <use xlink:href="#img-c0229d93-12" x="82.24" y="24.45"/>
          <use xlink:href="#img-c0229d93-12" x="82.75" y="23.79"/>
          <use xlink:href="#img-c0229d93-12" x="83.25" y="22.94"/>
          <use xlink:href="#img-c0229d93-12" x="83.75" y="20.52"/>
          <use xlink:href="#img-c0229d93-12" x="84.25" y="29.01"/>
          <use xlink:href="#img-c0229d93-12" x="84.75" y="24.81"/>
          <use xlink:href="#img-c0229d93-12" x="85.25" y="26.7"/>
          <use xlink:href="#img-c0229d93-12" x="85.75" y="24.01"/>
          <use xlink:href="#img-c0229d93-12" x="86.25" y="27.2"/>
          <use xlink:href="#img-c0229d93-12" x="86.76" y="28.33"/>
          <use xlink:href="#img-c0229d93-12" x="87.26" y="24.22"/>
          <use xlink:href="#img-c0229d93-12" x="87.76" y="25.71"/>
          <use xlink:href="#img-c0229d93-12" x="88.26" y="22.73"/>
          <use xlink:href="#img-c0229d93-12" x="88.76" y="25.65"/>
          <use xlink:href="#img-c0229d93-12" x="89.26" y="26.56"/>
          <use xlink:href="#img-c0229d93-12" x="89.76" y="27.43"/>
          <use xlink:href="#img-c0229d93-12" x="90.26" y="28.61"/>
          <use xlink:href="#img-c0229d93-12" x="90.77" y="29.43"/>
          <use xlink:href="#img-c0229d93-12" x="91.27" y="25.82"/>
          <use xlink:href="#img-c0229d93-12" x="91.77" y="25.99"/>
          <use xlink:href="#img-c0229d93-12" x="92.27" y="26.89"/>
          <use xlink:href="#img-c0229d93-12" x="92.77" y="22.28"/>
          <use xlink:href="#img-c0229d93-12" x="93.27" y="23.29"/>
          <use xlink:href="#img-c0229d93-12" x="93.77" y="24.04"/>
          <use xlink:href="#img-c0229d93-12" x="94.27" y="27.86"/>
          <use xlink:href="#img-c0229d93-12" x="94.78" y="31.55"/>
          <use xlink:href="#img-c0229d93-12" x="95.28" y="32.4"/>
          <use xlink:href="#img-c0229d93-12" x="95.78" y="20.6"/>
          <use xlink:href="#img-c0229d93-12" x="96.28" y="28.87"/>
          <use xlink:href="#img-c0229d93-12" x="96.78" y="34.78"/>
          <use xlink:href="#img-c0229d93-12" x="97.28" y="23.07"/>
          <use xlink:href="#img-c0229d93-12" x="97.78" y="28.13"/>
          <use xlink:href="#img-c0229d93-12" x="98.28" y="22.58"/>
          <use xlink:href="#img-c0229d93-12" x="98.78" y="25.52"/>
          <use xlink:href="#img-c0229d93-12" x="99.29" y="25.15"/>
          <use xlink:href="#img-c0229d93-12" x="99.79" y="21.16"/>
          <use xlink:href="#img-c0229d93-12" x="100.29" y="25.68"/>
          <use xlink:href="#img-c0229d93-12" x="100.79" y="28.97"/>
          <use xlink:href="#img-c0229d93-12" x="101.29" y="31.01"/>
          <use xlink:href="#img-c0229d93-12" x="101.79" y="28.04"/>
          <use xlink:href="#img-c0229d93-12" x="102.29" y="23.52"/>
          <use xlink:href="#img-c0229d93-12" x="102.79" y="25.22"/>
          <use xlink:href="#img-c0229d93-12" x="103.3" y="27.78"/>
          <use xlink:href="#img-c0229d93-12" x="103.8" y="24.8"/>
          <use xlink:href="#img-c0229d93-12" x="104.3" y="23.76"/>
          <use xlink:href="#img-c0229d93-12" x="104.8" y="28.26"/>
          <use xlink:href="#img-c0229d93-12" x="105.3" y="27.71"/>
          <use xlink:href="#img-c0229d93-12" x="105.8" y="24.42"/>
          <use xlink:href="#img-c0229d93-12" x="106.3" y="29.86"/>
          <use xlink:href="#img-c0229d93-12" x="106.8" y="31.05"/>
          <use xlink:href="#img-c0229d93-12" x="107.31" y="22.07"/>
          <use xlink:href="#img-c0229d93-12" x="107.81" y="30.55"/>
          <use xlink:href="#img-c0229d93-12" x="108.31" y="23.79"/>
          <use xlink:href="#img-c0229d93-12" x="108.81" y="32.26"/>
          <use xlink:href="#img-c0229d93-12" x="109.31" y="24.42"/>
          <use xlink:href="#img-c0229d93-12" x="109.81" y="33.53"/>
          <use xlink:href="#img-c0229d93-12" x="110.31" y="24.74"/>
          <use xlink:href="#img-c0229d93-12" x="110.81" y="26.93"/>
          <use xlink:href="#img-c0229d93-12" x="111.32" y="20.85"/>
          <use xlink:href="#img-c0229d93-12" x="111.82" y="25.92"/>
          <use xlink:href="#img-c0229d93-12" x="112.32" y="23.69"/>
          <use xlink:href="#img-c0229d93-12" x="112.82" y="26.19"/>
          <use xlink:href="#img-c0229d93-12" x="113.32" y="28.85"/>
          <use xlink:href="#img-c0229d93-12" x="113.82" y="28.5"/>
          <use xlink:href="#img-c0229d93-12" x="114.32" y="28.06"/>
          <use xlink:href="#img-c0229d93-12" x="114.82" y="28.92"/>
          <use xlink:href="#img-c0229d93-12" x="115.33" y="25.95"/>
          <use xlink:href="#img-c0229d93-12" x="115.83" y="21.7"/>
          <use xlink:href="#img-c0229d93-12" x="116.33" y="33.12"/>
          <use xlink:href="#img-c0229d93-12" x="116.83" y="33.36"/>
          <use xlink:href="#img-c0229d93-12" x="117.33" y="24.2"/>
          <use xlink:href="#img-c0229d93-12" x="117.83" y="18.42"/>
          <use xlink:href="#img-c0229d93-12" x="118.33" y="16.36"/>
          <use xlink:href="#img-c0229d93-12" x="118.83" y="21.37"/>
          <use xlink:href="#img-c0229d93-12" x="119.34" y="24.66"/>
          <use xlink:href="#img-c0229d93-12" x="119.84" y="26.77"/>
          <use xlink:href="#img-c0229d93-12" x="120.34" y="30.95"/>
          <use xlink:href="#img-c0229d93-12" x="120.84" y="33.95"/>
          <use xlink:href="#img-c0229d93-12" x="121.34" y="15.2"/>
          <use xlink:href="#img-c0229d93-12" x="121.84" y="28.77"/>
          <use xlink:href="#img-c0229d93-12" x="122.34" y="30.96"/>
          <use xlink:href="#img-c0229d93-12" x="122.84" y="29.19"/>
          <use xlink:href="#img-c0229d93-12" x="123.35" y="25.56"/>
          <use xlink:href="#img-c0229d93-12" x="123.85" y="27.62"/>
          <use xlink:href="#img-c0229d93-12" x="124.35" y="26.44"/>
          <use xlink:href="#img-c0229d93-12" x="124.85" y="26.38"/>
          <use xlink:href="#img-c0229d93-12" x="125.35" y="25.42"/>
          <use xlink:href="#img-c0229d93-12" x="125.85" y="18.44"/>
          <use xlink:href="#img-c0229d93-12" x="126.35" y="31.01"/>
          <use xlink:href="#img-c0229d93-12" x="126.85" y="24.26"/>
          <use xlink:href="#img-c0229d93-12" x="127.36" y="22.5"/>
          <use xlink:href="#img-c0229d93-12" x="127.86" y="27.53"/>
          <use xlink:href="#img-c0229d93-12" x="128.36" y="28.51"/>
          <use xlink:href="#img-c0229d93-12" x="128.86" y="19.68"/>
          <use xlink:href="#img-c0229d93-12" x="129.36" y="26.05"/>
          <use xlink:href="#img-c0229d93-12" x="129.86" y="23.13"/>
          <use xlink:href="#img-c0229d93-12" x="130.36" y="31.22"/>
          <use xlink:href="#img-c0229d93-12" x="130.86" y="23.63"/>
          <use xlink:href="#img-c0229d93-12" x="131.37" y="23"/>
          <use xlink:href="#img-c0229d93-12" x="131.87" y="20.94"/>
          <use xlink:href="#img-c0229d93-12" x="132.37" y="26"/>
          <use xlink:href="#img-c0229d93-12" x="132.87" y="24.89"/>
          <use xlink:href="#img-c0229d93-12" x="133.37" y="23.26"/>
          <use xlink:href="#img-c0229d93-12" x="133.87" y="22.44"/>
          <use xlink:href="#img-c0229d93-12" x="134.37" y="24.85"/>
          <use xlink:href="#img-c0229d93-12" x="134.87" y="25.86"/>
          <use xlink:href="#img-c0229d93-12" x="135.38" y="25.75"/>
          <use xlink:href="#img-c0229d93-12" x="135.88" y="25.25"/>
          <use xlink:href="#img-c0229d93-12" x="136.38" y="22.35"/>
          <use xlink:href="#img-c0229d93-12" x="136.88" y="27.1"/>
          <use xlink:href="#img-c0229d93-12" x="137.38" y="29.11"/>
          <use xlink:href="#img-c0229d93-12" x="137.88" y="21.9"/>
          <use xlink:href="#img-c0229d93-12" x="138.38" y="27.9"/>
          <use xlink:href="#img-c0229d93-12" x="138.88" y="21.5"/>
          <use xlink:href="#img-c0229d93-12" x="139.39" y="26.66"/>
          <use xlink:href="#img-c0229d93-12" x="139.89" y="21.52"/>
          <use xlink:href="#img-c0229d93-12" x="140.39" y="27.56"/>
          <use xlink:href="#img-c0229d93-12" x="140.89" y="26.43"/>
          <use xlink:href="#img-c0229d93-12" x="141.39" y="18.16"/>
          <use xlink:href="#img-c0229d93-12" x="141.89" y="18.28"/>
          <use xlink:href="#img-c0229d93-12" x="142.39" y="26.99"/>
          <use xlink:href="#img-c0229d93-12" x="142.89" y="29.04"/>
          <use xlink:href="#img-c0229d93-12" x="143.4" y="26.57"/>
          <use xlink:href="#img-c0229d93-12" x="143.9" y="27.71"/>
          <use xlink:href="#img-c0229d93-12" x="144.4" y="20.52"/>
          <use xlink:href="#img-c0229d93-12" x="144.9" y="21.26"/>
          <use xlink:href="#img-c0229d93-12" x="145.4" y="32.24"/>
        </g>
      </g>
    </g>
  </g>
</g>
  <g class="guide ylabels" font-size="2.82" font-family="'PT Sans Caption','Helvetica Neue','Helvetica',sans-serif" fill="#6C606B" id="img-c0229d93-13">
    <text x="17.09" y="54.91" text-anchor="end" dy="0.35em">0</text>
    <text x="17.09" y="38.94" text-anchor="end" dy="0.35em">1</text>
    <text x="17.09" y="22.97" text-anchor="end" dy="0.35em">2</text>
    <text x="17.09" y="7" text-anchor="end" dy="0.35em">3</text>
  </g>
  <g font-size="3.88" font-family="'PT Sans','Helvetica Neue','Helvetica',sans-serif" fill="#564A55" stroke="#000000" stroke-opacity="0.000" id="img-c0229d93-14">
    <text x="9.71" y="28.96" text-anchor="middle" dy="0.35em" transform="rotate(-90, 9.71, 30.96)">Relative L<tspan style="dominant-baseline:inherit" dy="0.6em" font-size="83%">2</tspan><tspan dy="-0.498000em"></tspan></text>
  </g>
</g>
<defs>
  <clipPath id="img-c0229d93-4">
  <path d="M18.09,5 L 147.4 5 147.4 56.91 18.09 56.91" />
</clipPath>
  <g id="img-c0229d93-12">
    <circle cx="0" cy="0" r="0.9"/>
  </g>
</defs>
</svg>
